<?xml version="1.0" standalone="no"?>
<!DOCTYPE svg PUBLIC "-//W3C//DTD SVG 20010904//EN"
 "http://www.w3.org/TR/2001/REC-SVG-20010904/DTD/svg10.dtd">
<svg version="1.0" xmlns="http://www.w3.org/2000/svg"
 width="313.000000pt" height="313.000000pt" viewBox="0 0 313.000000 313.000000"
 preserveAspectRatio="xMidYMid meet">
<metadata>
Created by potrace 1.14, written by Peter Selinger 2001-2017
</metadata>
<g transform="translate(0.000000,313.000000) scale(0.100000,-0.100000)"
fill="#000000" stroke="none">
<path d="M910 1545 l0 -1265 653 0 653 0 -1 1263 0 1262 -652 3 -653 2 0
-1265z m1206 1186 l21 -1 0 -545 c0 -300 -4 -548 -9 -551 -6 -4 -993 -8 -1115
-5 l-23 1 0 549 0 550 28 3 c21 2 1008 1 1098 -1z m19 -1781 l1 -590 -573 0
-573 0 0 590 0 590 573 0 572 0 0 -590z"/>
<path d="M1317 2575 c-2 -5 -3 -161 -3 -345 l1 -335 38 -3 37 -3 1 58 c0 32 0
162 0 288 l-1 230 44 -70 c48 -76 100 -152 247 -363 91 -130 98 -137 133 -140
29 -3 36 0 36 15 3 107 1 665 -1 668 -5 4 -39 8 -59 6 -14 -1 -15 -37 -15
-281 0 -154 0 -280 0 -280 0 0 -54 79 -120 176 -250 366 -266 387 -302 388
-18 1 -34 -3 -36 -9z"/>
<path d="M1560 1323 c-145 -37 -236 -161 -244 -332 -10 -220 114 -373 313
-388 66 -5 167 9 203 28 14 8 15 14 6 39 -12 35 -13 35 -61 15 -46 -19 -152
-19 -206 0 -104 36 -161 126 -167 260 -8 199 90 318 266 323 31 1 77 -6 107
-16 l52 -19 11 31 c12 34 7 40 -55 57 -60 17 -163 18 -225 2z"/>
</g>
</svg>
