<svg xmlns="http://www.w3.org/2000/svg" xmlns:xlink="http://www.w3.org/1999/xlink" width="687.99" height="571.5" viewBox="0 0 687.99 571.5"><defs><clipPath id="a"><rect width="530.311" height="495.27" fill="none"/></clipPath><clipPath id="b"><rect width="557.99" height="378.781" fill="none"/></clipPath><clipPath id="d"><path d="M187.6,135.765s-38.992,8.27-71.486,26.586-57.9,33.084-57.9,40.172-13,119.34-13,119.34H340.61s-28.948-62.033-33.674-88.617-10.044-43.72-25.4-60.852c-14.586-16.27-55.82-36.8-88.775-36.8q-2.62,0-5.16.176" transform="translate(-45.217 -135.589)" fill="none"/></clipPath><clipPath id="e"><path d="M154.081,144.692l-.079.027-.114.041c-.042.014-.085.029-.126.044l-.074.026a241.89,241.89,0,0,0-37.578,16.7c-32.493,18.314-57.9,33.084-57.9,40.172s-13,119.34-13,119.34h16.16c3.01-27.825,8.6-75.642,11.7-77.851,2.088-1.492,5.177,3.148,8.1,7.789,3.2,5.073,6.211,10.145,7.517,7.209,2.5-5.625-15.621-33.743-16.873-43.742S82.446,203.2,96.194,193.828s26.244-16.87,26.244-4.372,5.624,35.616,10,26.244,13.748-21.245,14.371-5,0,32.493,1.875,32.493,18.746-17.5,23.122-26.244-5-31.244-5-41.242,8.749-23.745,8.749-23.745l.558-14.144c-5.844,1.6-13.51,3.875-22.029,6.874" transform="translate(-45.217 -137.818)" fill="none"/></clipPath><clipPath id="h"><path d="M146.517,138.9s-17.133,9.452-18.314,30.72,0,43.129-1.182,54.944-9.453,21.268-2.954,20.678,21.268-24.223,26.586-24.223,7.089,11.226,9.452,14.771,10.661,5.03,10.661,5.03,7.653-9.166,7.653-12.12-2.363-13,4.136-11.815,20.678,23.63,21.268,16.542-6.5-17.723-6.5-34.857-8.27-37.219-20.087-49.627c-8.366-8.783-14.217-10.623-21.216-10.623-2.887,0-5.97.312-9.5.58" transform="translate(-121.601 -138.318)" fill="#4a494d"/></clipPath><clipPath id="j"><path d="M138.24,172.992c0,18.679,9.661,38,13.526,47.017s12.882,20.611,12.882,20.611S164,216.79,169.8,205.2s10.949-19.966,10.949-19.966-7.084-7.084-17.391-23.186-18.034-23.187-18.034-23.187a91.187,91.187,0,0,0-7.084,34.135" transform="translate(-138.24 -138.857)" fill="none"/></clipPath><clipPath id="l"><path d="M139.786,104.885c-5.008,12.52-4.293,28.615-1.072,42.566s4.292,28.258,13.949,42.567,26.471,36.486,38.99,35.77,23.608-11.446,32.192-23.965,12.52-41.135,15.382-50.436,4.65-35.77,4.65-35.77a14.365,14.365,0,0,0,0-15.739c-5.365-8.228-31.836-19.315-52.939-21.1q-1.7-.146-3.436-.144c-20.3,0-42.977,14.41-47.716,26.255" transform="translate(-136.163 -78.63)" fill="none"/></clipPath><clipPath id="n"><path d="M167.8,54.969C164.581,56.4,161,64.985,161,64.985s-7.511-2.146-11.447.357-5.008,5.01-1.788,5.01a18.629,18.629,0,0,1,5.365.714l-1.789,1.074S128.1,79.65,126.308,88.95s10.017,41.852,9.658,45.786-3.936,7.154,0,12.876,11.089,14.308,13.95,9.658-1.074-11.446,3.578-14.308,11.088-7.511,7.511-13.592-1.789-15.024,5.722-16.1,13.95-6.081,10.017-.358-15.382,19.675-9.3,20.747,30.047-15.024,30.047-15.024-8.226,16.456-3.935,17.528,37.917-21.1,37.917-21.1,16.1,21.1,19.315,19.674c2.856-1.269,1.489-10.7,1.143-12.815.44,2.5,2.921,15.387,7.441,16.034,5.007.715,11.8-7.87,9.657-13.236s-5.722-12.875-5.722-12.875,7.154-1.789,10.017-5.01,2.5-3.576-3.578-4.65-10.732-7.869-16.454-13.95-15.025-14.307-15.025-14.307,10.733,4.65,5.01-.715-36.128-17.528-52.584-17.528-22.535,8.585-22.535,8.585,2.515-9.431.178-9.431a1.346,1.346,0,0,0-.535.131" transform="translate(-126.123 -54.838)" fill="none"/></clipPath><clipPath id="o"><rect width="126.861" height="55.376" fill="none"/></clipPath><clipPath id="q"><path d="M216.59,123.728a62.88,62.88,0,0,1-11.844,2.594c2.734,2.906,3.675,8.976,4.723,17.666.875,7.266,4.891,11.44,12.781,11.449,3.594,0,8.973-1.085,14.276-10.464a25.766,25.766,0,0,0,3.17-15.448l-.4-2.313,1.846-1.476a66.344,66.344,0,0,0-17.6-2.893,23.743,23.743,0,0,0-6.944.883m-40.822-3.442c-12.324.353-21.262,2.321-24.425,3.612.045.12.086.239.127.349.217.594.444,1.224.635,1.893.241.837.512,2.161.884,3.992.929,4.535,2.653,12.976,4.713,16.323,2.577,4.188,9.818,7.778,13.938,7.778,4.437,0,6.872-.7,12.548-4.866,1.3-.956,4.764-4.7,8.76-18.809.138-.486.234-.816.258-.881l.052-.261a6.865,6.865,0,0,1,1.741-3.65,13.984,13.984,0,0,1-1.6-.57l-.762-.327-.566-.609c-.037-.04-4.19-3.989-14.988-3.989-.428,0-.864,0-1.312.016" transform="translate(-151.343 -120.269)" fill="#8d47fc"/></clipPath><clipPath id="s"><path d="M131.865,146.337c4.649,8.942,14.665,12.52,17.527,7.153l1.074-12.876s-8.585-20.032-16.1-20.032-7.154,16.811-2.5,25.756" transform="translate(-128.52 -120.581)" fill="none"/></clipPath><clipPath id="u"><path d="M238.155,180.643,209.206,297.029H378.763l28.949-116.386Z" transform="translate(-209.206 -180.643)" fill="#4a494d"/></clipPath><clipPath id="v"><rect width="252.856" height="8.27" fill="#4a494d"/></clipPath><clipPath id="w"><path d="M209.206,265.742v8.27h169.63l1.792-8.27Z" transform="translate(-209.206 -265.742)" fill="#4a494d"/></clipPath><clipPath id="x"><path d="M239.526,180.643,210.577,297.029H380.132l28.951-116.386Z" transform="translate(-210.577 -180.643)" fill="#4a494d"/></clipPath></defs><g transform="translate(-145 -1299.5)"><g transform="translate(-5022 1997)"><g transform="translate(5167 -697.5)" opacity="0.041"><g transform="translate(0 0)" clip-path="url(#a)"><path d="M22.829,9.751H4.516a4.516,4.516,0,0,1,0-9.032H22.829a4.516,4.516,0,0,1,0,9.032m4.516,16.417a4.512,4.512,0,0,0-4.516-4.522H4.516a4.519,4.519,0,0,0,0,9.038H22.829a4.51,4.51,0,0,0,4.516-4.516m0,20.927a4.51,4.51,0,0,0-4.516-4.516H4.516a4.516,4.516,0,1,0,0,9.032H22.829A4.51,4.51,0,0,0,27.345,47.1m0,20.927a4.51,4.51,0,0,0-4.516-4.516H4.516a4.516,4.516,0,1,0,0,9.032H22.829a4.51,4.51,0,0,0,4.516-4.516m0,20.927a4.51,4.51,0,0,0-4.516-4.516H4.516a4.519,4.519,0,0,0,0,9.038H22.829a4.512,4.512,0,0,0,4.516-4.522m0,20.939a4.515,4.515,0,0,0-4.516-4.522H4.516a4.519,4.519,0,0,0,0,9.038H22.829a4.51,4.51,0,0,0,4.516-4.516m0,20.927a4.51,4.51,0,0,0-4.516-4.516H4.516a4.516,4.516,0,1,0,0,9.032H22.829a4.51,4.51,0,0,0,4.516-4.516m0,20.927a4.51,4.51,0,0,0-4.516-4.516H4.516a4.516,4.516,0,0,0,0,9.032H22.829a4.51,4.51,0,0,0,4.516-4.516M95.86,5.235A4.514,4.514,0,0,0,91.344.719H43.27a4.516,4.516,0,1,0,0,9.032H91.344A4.514,4.514,0,0,0,95.86,5.235m0,20.933a4.515,4.515,0,0,0-4.516-4.522H43.27a4.519,4.519,0,0,0,0,9.038H91.344a4.514,4.514,0,0,0,4.516-4.516m0,20.927a4.514,4.514,0,0,0-4.516-4.516H43.27a4.516,4.516,0,1,0,0,9.032H91.344A4.514,4.514,0,0,0,95.86,47.1m0,20.927a4.514,4.514,0,0,0-4.516-4.516H43.27a4.516,4.516,0,1,0,0,9.032H91.344a4.514,4.514,0,0,0,4.516-4.516m0,20.927a4.514,4.514,0,0,0-4.516-4.516H43.27a4.519,4.519,0,0,0,0,9.038H91.344A4.515,4.515,0,0,0,95.86,88.95m57.559,20.939a4.519,4.519,0,0,0-4.516-4.522H100.829a4.519,4.519,0,0,0,0,9.038H148.9a4.514,4.514,0,0,0,4.516-4.516m0,20.927A4.514,4.514,0,0,0,148.9,126.3H100.829a4.516,4.516,0,1,0,0,9.032H148.9a4.514,4.514,0,0,0,4.516-4.516m0,20.927a4.514,4.514,0,0,0-4.516-4.516H100.829a4.516,4.516,0,1,0,0,9.032H148.9a4.514,4.514,0,0,0,4.516-4.516M117.019,5.235a5.235,5.235,0,1,0-5.235,5.235,5.234,5.234,0,0,0,5.235-5.235m15.693,0a5.232,5.232,0,1,0-5.229,5.235,5.232,5.232,0,0,0,5.229-5.235m15.7,0a5.232,5.232,0,1,0-5.229,5.235,5.232,5.232,0,0,0,5.229-5.235m15.7,0a5.232,5.232,0,1,0-5.229,5.235,5.232,5.232,0,0,0,5.229-5.235m15.7,0a5.232,5.232,0,1,0-5.235,5.235,5.234,5.234,0,0,0,5.235-5.235m15.7,0a5.232,5.232,0,1,0-5.235,5.235,5.234,5.234,0,0,0,5.235-5.235M117.019,47.1a5.235,5.235,0,1,0-5.235,5.235,5.234,5.234,0,0,0,5.235-5.235m15.693,0a5.232,5.232,0,1,0-5.229,5.235,5.232,5.232,0,0,0,5.229-5.235m15.7,0a5.232,5.232,0,1,0-5.229,5.235,5.232,5.232,0,0,0,5.229-5.235m15.7,0a5.232,5.232,0,1,0-5.229,5.235,5.232,5.232,0,0,0,5.229-5.235m15.7,0a5.232,5.232,0,1,0-5.235,5.235,5.234,5.234,0,0,0,5.235-5.235m15.7,0a5.232,5.232,0,1,0-5.235,5.235,5.234,5.234,0,0,0,5.235-5.235m-24.855,60.173a5.232,5.232,0,1,0-5.235,5.235,5.234,5.234,0,0,0,5.235-5.235m15.7,0a5.235,5.235,0,1,0-5.235,5.235,5.234,5.234,0,0,0,5.235-5.235m15.7,0a5.235,5.235,0,1,0-5.235,5.235,5.234,5.234,0,0,0,5.235-5.235m15.693,0a5.232,5.232,0,1,0-5.229,5.235,5.233,5.233,0,0,0,5.229-5.235m15.7,0a5.232,5.232,0,1,0-5.229,5.235,5.232,5.232,0,0,0,5.229-5.235m15.7,0A5.232,5.232,0,1,0,243.9,112.5a5.234,5.234,0,0,0,5.235-5.235m-78.486,43.168a5.232,5.232,0,1,0-5.235,5.235,5.234,5.234,0,0,0,5.235-5.235m15.7,0a5.235,5.235,0,1,0-5.235,5.235,5.234,5.234,0,0,0,5.235-5.235m15.7,0a5.235,5.235,0,1,0-5.235,5.235,5.234,5.234,0,0,0,5.235-5.235m15.693,0a5.232,5.232,0,1,0-5.229,5.235,5.233,5.233,0,0,0,5.229-5.235m15.7,0a5.232,5.232,0,1,0-5.229,5.235,5.232,5.232,0,0,0,5.229-5.235m15.7,0a5.232,5.232,0,1,0-5.235,5.235,5.234,5.234,0,0,0,5.235-5.235" transform="translate(0 -0.001)" fill="#fff"/><path d="M22.829,39.346H4.516a4.516,4.516,0,0,1,0-9.032H22.829a4.516,4.516,0,0,1,0,9.032m4.516,16.411a4.51,4.51,0,0,0-4.516-4.516H4.516a4.519,4.519,0,0,0,0,9.038H22.829a4.512,4.512,0,0,0,4.516-4.522m0,20.933a4.51,4.51,0,0,0-4.516-4.516H4.516a4.516,4.516,0,0,0,0,9.032H22.829a4.51,4.51,0,0,0,4.516-4.516m0,20.927A4.51,4.51,0,0,0,22.829,93.1H4.516a4.516,4.516,0,1,0,0,9.032H22.829a4.51,4.51,0,0,0,4.516-4.516m0,20.927a4.51,4.51,0,0,0-4.516-4.516H4.516a4.519,4.519,0,0,0,0,9.038H22.829a4.512,4.512,0,0,0,4.516-4.522m0,20.939a4.512,4.512,0,0,0-4.516-4.522H4.516a4.519,4.519,0,0,0,0,9.038H22.829a4.51,4.51,0,0,0,4.516-4.516m0,20.927a4.51,4.51,0,0,0-4.516-4.516H4.516a4.516,4.516,0,1,0,0,9.032H22.829a4.51,4.51,0,0,0,4.516-4.516m0,20.927a4.51,4.51,0,0,0-4.516-4.516H4.516a4.516,4.516,0,1,0,0,9.032H22.829a4.51,4.51,0,0,0,4.516-4.516M95.86,34.83a4.514,4.514,0,0,0-4.516-4.516H43.27a4.516,4.516,0,0,0,0,9.032H91.344A4.514,4.514,0,0,0,95.86,34.83m0,20.927a4.514,4.514,0,0,0-4.516-4.516H43.27a4.519,4.519,0,0,0,0,9.038H91.344a4.515,4.515,0,0,0,4.516-4.522m0,20.933a4.514,4.514,0,0,0-4.516-4.516H43.27a4.516,4.516,0,0,0,0,9.032H91.344A4.514,4.514,0,0,0,95.86,76.69m0,20.927A4.514,4.514,0,0,0,91.344,93.1H43.27a4.516,4.516,0,1,0,0,9.032H91.344a4.514,4.514,0,0,0,4.516-4.516m0,20.927a4.514,4.514,0,0,0-4.516-4.516H43.27a4.519,4.519,0,0,0,0,9.038H91.344a4.515,4.515,0,0,0,4.516-4.522m57.559,20.939a4.515,4.515,0,0,0-4.516-4.522H100.829a4.519,4.519,0,0,0,0,9.038H148.9a4.514,4.514,0,0,0,4.516-4.516m0,20.927A4.514,4.514,0,0,0,148.9,155.9H100.829a4.516,4.516,0,1,0,0,9.032H148.9a4.514,4.514,0,0,0,4.516-4.516m0,20.927a4.514,4.514,0,0,0-4.516-4.516H100.829a4.516,4.516,0,1,0,0,9.032H148.9a4.514,4.514,0,0,0,4.516-4.516M117.019,34.83a5.235,5.235,0,1,0-5.235,5.235,5.234,5.234,0,0,0,5.235-5.235m15.693,0a5.232,5.232,0,1,0-5.229,5.235,5.232,5.232,0,0,0,5.229-5.235m15.7,0a5.232,5.232,0,1,0-5.229,5.235,5.233,5.233,0,0,0,5.229-5.235m15.7,0a5.232,5.232,0,1,0-5.229,5.235,5.233,5.233,0,0,0,5.229-5.235m15.7,0a5.232,5.232,0,1,0-5.235,5.235,5.234,5.234,0,0,0,5.235-5.235m15.7,0a5.232,5.232,0,1,0-5.235,5.235,5.234,5.234,0,0,0,5.235-5.235M117.019,76.69a5.235,5.235,0,1,0-5.235,5.235,5.234,5.234,0,0,0,5.235-5.235m15.693,0a5.232,5.232,0,1,0-5.229,5.235,5.232,5.232,0,0,0,5.229-5.235m15.7,0a5.232,5.232,0,1,0-5.229,5.235,5.232,5.232,0,0,0,5.229-5.235m15.7,0a5.232,5.232,0,1,0-5.229,5.235,5.232,5.232,0,0,0,5.229-5.235m15.7,0a5.232,5.232,0,1,0-5.235,5.235,5.234,5.234,0,0,0,5.235-5.235m15.7,0a5.232,5.232,0,1,0-5.235,5.235,5.234,5.234,0,0,0,5.235-5.235m-24.855,60.173a5.232,5.232,0,1,0-5.235,5.235,5.234,5.234,0,0,0,5.235-5.235m15.7,0a5.235,5.235,0,1,0-5.235,5.235,5.234,5.234,0,0,0,5.235-5.235m15.7,0a5.235,5.235,0,1,0-5.235,5.235,5.234,5.234,0,0,0,5.235-5.235m15.693,0a5.232,5.232,0,1,0-5.229,5.235,5.233,5.233,0,0,0,5.229-5.235m15.7,0a5.232,5.232,0,1,0-5.229,5.235,5.233,5.233,0,0,0,5.229-5.235m15.7,0A5.232,5.232,0,1,0,243.9,142.1a5.234,5.234,0,0,0,5.235-5.235m-78.486,43.168a5.232,5.232,0,1,0-5.235,5.235,5.234,5.234,0,0,0,5.235-5.235m15.7,0a5.235,5.235,0,1,0-5.235,5.235,5.234,5.234,0,0,0,5.235-5.235m15.7,0a5.235,5.235,0,1,0-5.235,5.235,5.234,5.234,0,0,0,5.235-5.235m15.693,0a5.232,5.232,0,1,0-5.229,5.235,5.233,5.233,0,0,0,5.229-5.235m15.7,0a5.232,5.232,0,1,0-5.229,5.235,5.233,5.233,0,0,0,5.229-5.235m15.7,0a5.232,5.232,0,1,0-5.235,5.235,5.234,5.234,0,0,0,5.235-5.235" transform="translate(0 137.886)" fill="#fff"/><path d="M22.829,69.656H4.516a4.516,4.516,0,1,1,0-9.032H22.829a4.516,4.516,0,1,1,0,9.032m4.516,16.411a4.51,4.51,0,0,0-4.516-4.516H4.516a4.519,4.519,0,0,0,0,9.038H22.829a4.515,4.515,0,0,0,4.516-4.522m0,20.933a4.51,4.51,0,0,0-4.516-4.516H4.516a4.516,4.516,0,1,0,0,9.032H22.829A4.51,4.51,0,0,0,27.345,107m0,20.927a4.51,4.51,0,0,0-4.516-4.516H4.516a4.516,4.516,0,0,0,0,9.032H22.829a4.51,4.51,0,0,0,4.516-4.516m0,20.927a4.51,4.51,0,0,0-4.516-4.516H4.516a4.519,4.519,0,0,0,0,9.038H22.829a4.512,4.512,0,0,0,4.516-4.522m0,20.939a4.512,4.512,0,0,0-4.516-4.522H4.516a4.519,4.519,0,0,0,0,9.038H22.829a4.51,4.51,0,0,0,4.516-4.516m0,20.927a4.51,4.51,0,0,0-4.516-4.516H4.516a4.516,4.516,0,1,0,0,9.032H22.829a4.51,4.51,0,0,0,4.516-4.516m0,20.927a4.51,4.51,0,0,0-4.516-4.516H4.516a4.516,4.516,0,0,0,0,9.032H22.829a4.51,4.51,0,0,0,4.516-4.516M95.86,65.14a4.514,4.514,0,0,0-4.516-4.516H43.27a4.516,4.516,0,1,0,0,9.032H91.344A4.514,4.514,0,0,0,95.86,65.14m0,20.927a4.514,4.514,0,0,0-4.516-4.516H43.27a4.519,4.519,0,0,0,0,9.038H91.344a4.519,4.519,0,0,0,4.516-4.522m0,20.933a4.514,4.514,0,0,0-4.516-4.516H43.27a4.516,4.516,0,1,0,0,9.032H91.344A4.514,4.514,0,0,0,95.86,107m0,20.927a4.514,4.514,0,0,0-4.516-4.516H43.27a4.516,4.516,0,0,0,0,9.032H91.344a4.514,4.514,0,0,0,4.516-4.516m0,20.927a4.514,4.514,0,0,0-4.516-4.516H43.27a4.519,4.519,0,0,0,0,9.038H91.344a4.515,4.515,0,0,0,4.516-4.522m57.559,20.939a4.515,4.515,0,0,0-4.516-4.522H100.829a4.519,4.519,0,0,0,0,9.038H148.9a4.514,4.514,0,0,0,4.516-4.516m0,20.927a4.514,4.514,0,0,0-4.516-4.516H100.829a4.516,4.516,0,1,0,0,9.032H148.9a4.514,4.514,0,0,0,4.516-4.516m0,20.927a4.514,4.514,0,0,0-4.516-4.516H100.829a4.516,4.516,0,0,0,0,9.032H148.9a4.514,4.514,0,0,0,4.516-4.516M117.019,65.14a5.235,5.235,0,1,0-5.235,5.235,5.234,5.234,0,0,0,5.235-5.235m15.693,0a5.232,5.232,0,1,0-5.229,5.235,5.233,5.233,0,0,0,5.229-5.235m15.7,0a5.232,5.232,0,1,0-5.229,5.235,5.233,5.233,0,0,0,5.229-5.235m15.7,0a5.232,5.232,0,1,0-5.229,5.235,5.233,5.233,0,0,0,5.229-5.235m15.7,0a5.232,5.232,0,1,0-5.235,5.235,5.234,5.234,0,0,0,5.235-5.235m15.7,0a5.232,5.232,0,1,0-5.235,5.235,5.234,5.234,0,0,0,5.235-5.235M117.019,107a5.235,5.235,0,1,0-5.235,5.229A5.234,5.234,0,0,0,117.019,107m15.693,0a5.232,5.232,0,1,0-5.229,5.229A5.233,5.233,0,0,0,132.712,107m15.7,0a5.232,5.232,0,1,0-5.229,5.229A5.233,5.233,0,0,0,148.411,107m15.7,0a5.232,5.232,0,1,0-5.229,5.229A5.233,5.233,0,0,0,164.109,107m15.7,0a5.232,5.232,0,1,0-5.235,5.229A5.234,5.234,0,0,0,179.807,107m15.7,0a5.232,5.232,0,1,0-5.235,5.229A5.234,5.234,0,0,0,195.506,107m-24.855,60.173a5.232,5.232,0,1,0-5.235,5.229,5.234,5.234,0,0,0,5.235-5.229m15.7,0a5.235,5.235,0,1,0-5.235,5.229,5.234,5.234,0,0,0,5.235-5.229m15.7,0a5.235,5.235,0,1,0-5.235,5.229,5.234,5.234,0,0,0,5.235-5.229m15.693,0a5.232,5.232,0,1,0-5.229,5.229,5.233,5.233,0,0,0,5.229-5.229m15.7,0a5.232,5.232,0,1,0-5.229,5.229,5.233,5.233,0,0,0,5.229-5.229m15.7,0A5.232,5.232,0,1,0,243.9,172.4a5.234,5.234,0,0,0,5.235-5.229m-78.486,43.168a5.232,5.232,0,1,0-5.235,5.235,5.234,5.234,0,0,0,5.235-5.235m15.7,0a5.235,5.235,0,1,0-5.235,5.235,5.234,5.234,0,0,0,5.235-5.235m15.7,0a5.235,5.235,0,1,0-5.235,5.235,5.234,5.234,0,0,0,5.235-5.235m15.693,0a5.232,5.232,0,1,0-5.229,5.235,5.233,5.233,0,0,0,5.229-5.235m15.7,0a5.232,5.232,0,1,0-5.229,5.235,5.232,5.232,0,0,0,5.229-5.235m15.7,0a5.232,5.232,0,1,0-5.235,5.235,5.234,5.234,0,0,0,5.235-5.235" transform="translate(0 279.104)" fill="#fff"/><path d="M72.514,9.751H54.2a4.516,4.516,0,1,1,0-9.032H72.514a4.516,4.516,0,0,1,0,9.032M77.03,26.168a4.515,4.515,0,0,0-4.516-4.522H54.2a4.519,4.519,0,0,0,0,9.038H72.514a4.514,4.514,0,0,0,4.516-4.516m0,20.927a4.514,4.514,0,0,0-4.516-4.516H54.2a4.516,4.516,0,1,0,0,9.032H72.514A4.514,4.514,0,0,0,77.03,47.1m0,20.927a4.514,4.514,0,0,0-4.516-4.516H54.2a4.516,4.516,0,1,0,0,9.032H72.514a4.514,4.514,0,0,0,4.516-4.516m0,20.927a4.514,4.514,0,0,0-4.516-4.516H54.2a4.519,4.519,0,0,0,0,9.038H72.514A4.515,4.515,0,0,0,77.03,88.95m0,20.939a4.519,4.519,0,0,0-4.516-4.522H54.2a4.519,4.519,0,0,0,0,9.038H72.514a4.514,4.514,0,0,0,4.516-4.516m0,20.927a4.514,4.514,0,0,0-4.516-4.516H54.2a4.516,4.516,0,1,0,0,9.032H72.514a4.514,4.514,0,0,0,4.516-4.516m0,20.927a4.514,4.514,0,0,0-4.516-4.516H54.2a4.516,4.516,0,1,0,0,9.032H72.514a4.514,4.514,0,0,0,4.516-4.516M145.545,5.235A4.514,4.514,0,0,0,141.029.719H92.955a4.516,4.516,0,1,0,0,9.032h48.074a4.514,4.514,0,0,0,4.516-4.516m0,20.933a4.515,4.515,0,0,0-4.516-4.522H92.955a4.519,4.519,0,0,0,0,9.038h48.074a4.514,4.514,0,0,0,4.516-4.516m0,20.927a4.514,4.514,0,0,0-4.516-4.516H92.955a4.516,4.516,0,1,0,0,9.032h48.074a4.514,4.514,0,0,0,4.516-4.516m0,20.927a4.514,4.514,0,0,0-4.516-4.516H92.955a4.516,4.516,0,1,0,0,9.032h48.074a4.514,4.514,0,0,0,4.516-4.516m0,20.927a4.514,4.514,0,0,0-4.516-4.516H92.955a4.519,4.519,0,0,0,0,9.038h48.074a4.515,4.515,0,0,0,4.516-4.522M203.1,109.889a4.519,4.519,0,0,0-4.516-4.522H150.514a4.519,4.519,0,0,0,0,9.038h48.074a4.514,4.514,0,0,0,4.516-4.516m0,20.927a4.514,4.514,0,0,0-4.516-4.516H150.514a4.516,4.516,0,0,0,0,9.032h48.074a4.514,4.514,0,0,0,4.516-4.516m0,20.927a4.514,4.514,0,0,0-4.516-4.516H150.514a4.516,4.516,0,0,0,0,9.032h48.074a4.514,4.514,0,0,0,4.516-4.516M166.7,5.235a5.235,5.235,0,1,0-5.235,5.235A5.234,5.234,0,0,0,166.7,5.235m15.693,0a5.232,5.232,0,1,0-5.229,5.235A5.233,5.233,0,0,0,182.4,5.235m15.7,0a5.232,5.232,0,1,0-5.229,5.235A5.233,5.233,0,0,0,198.1,5.235m15.7,0a5.232,5.232,0,1,0-5.235,5.235,5.234,5.234,0,0,0,5.235-5.235m15.7,0a5.232,5.232,0,1,0-5.235,5.235,5.234,5.234,0,0,0,5.235-5.235m15.7,0a5.235,5.235,0,1,0-5.235,5.235,5.234,5.234,0,0,0,5.235-5.235M166.7,47.1a5.235,5.235,0,1,0-5.235,5.235A5.234,5.234,0,0,0,166.7,47.1m15.693,0a5.232,5.232,0,1,0-5.229,5.235A5.233,5.233,0,0,0,182.4,47.1m15.7,0a5.232,5.232,0,1,0-5.229,5.235A5.233,5.233,0,0,0,198.1,47.1m15.7,0a5.232,5.232,0,1,0-5.235,5.235,5.234,5.234,0,0,0,5.235-5.235m15.7,0a5.232,5.232,0,1,0-5.235,5.235,5.234,5.234,0,0,0,5.235-5.235m15.7,0a5.235,5.235,0,1,0-5.235,5.235,5.234,5.234,0,0,0,5.235-5.235m-24.855,60.173A5.232,5.232,0,1,0,215.1,112.5a5.234,5.234,0,0,0,5.235-5.235m15.7,0A5.235,5.235,0,1,0,230.8,112.5a5.234,5.234,0,0,0,5.235-5.235m15.693,0A5.232,5.232,0,1,0,246.5,112.5a5.233,5.233,0,0,0,5.229-5.235m15.7,0A5.232,5.232,0,1,0,262.2,112.5a5.233,5.233,0,0,0,5.229-5.235m15.7,0a5.232,5.232,0,1,0-5.235,5.235,5.234,5.234,0,0,0,5.235-5.235m15.7,0a5.232,5.232,0,1,0-5.235,5.235,5.234,5.234,0,0,0,5.235-5.235m-78.486,43.168a5.232,5.232,0,1,0-5.235,5.235,5.234,5.234,0,0,0,5.235-5.235m15.7,0a5.235,5.235,0,1,0-5.235,5.235,5.234,5.234,0,0,0,5.235-5.235m15.693,0a5.232,5.232,0,1,0-5.229,5.235,5.233,5.233,0,0,0,5.229-5.235m15.7,0a5.232,5.232,0,1,0-5.229,5.235,5.233,5.233,0,0,0,5.229-5.235m15.7,0a5.232,5.232,0,1,0-5.235,5.235,5.234,5.234,0,0,0,5.235-5.235m15.7,0a5.232,5.232,0,1,0-5.235,5.235,5.234,5.234,0,0,0,5.235-5.235" transform="translate(231.489 -0.001)" fill="#fff"/><path d="M72.514,40.061H54.2a4.516,4.516,0,1,1,0-9.032H72.514a4.516,4.516,0,0,1,0,9.032M77.03,56.472a4.514,4.514,0,0,0-4.516-4.516H54.2a4.519,4.519,0,0,0,0,9.038H72.514a4.515,4.515,0,0,0,4.516-4.522m0,20.933a4.514,4.514,0,0,0-4.516-4.516H54.2a4.516,4.516,0,1,0,0,9.032H72.514a4.514,4.514,0,0,0,4.516-4.516m0,20.927a4.514,4.514,0,0,0-4.516-4.516H54.2a4.516,4.516,0,1,0,0,9.032H72.514a4.514,4.514,0,0,0,4.516-4.516m0,20.927a4.514,4.514,0,0,0-4.516-4.516H54.2a4.519,4.519,0,0,0,0,9.038H72.514a4.515,4.515,0,0,0,4.516-4.522m0,20.939a4.515,4.515,0,0,0-4.516-4.522H54.2a4.519,4.519,0,0,0,0,9.038H72.514A4.514,4.514,0,0,0,77.03,140.2m0,20.927a4.514,4.514,0,0,0-4.516-4.516H54.2a4.516,4.516,0,0,0,0,9.032H72.514a4.514,4.514,0,0,0,4.516-4.516m0,20.927a4.514,4.514,0,0,0-4.516-4.516H54.2a4.516,4.516,0,0,0,0,9.032H72.514a4.514,4.514,0,0,0,4.516-4.516M145.545,35.545a4.514,4.514,0,0,0-4.516-4.516H92.955a4.516,4.516,0,1,0,0,9.032h48.074a4.514,4.514,0,0,0,4.516-4.516m0,20.927a4.514,4.514,0,0,0-4.516-4.516H92.955a4.519,4.519,0,0,0,0,9.038h48.074a4.515,4.515,0,0,0,4.516-4.522m0,20.933a4.514,4.514,0,0,0-4.516-4.516H92.955a4.516,4.516,0,1,0,0,9.032h48.074a4.514,4.514,0,0,0,4.516-4.516m0,20.927a4.514,4.514,0,0,0-4.516-4.516H92.955a4.516,4.516,0,1,0,0,9.032h48.074a4.514,4.514,0,0,0,4.516-4.516m0,20.927a4.514,4.514,0,0,0-4.516-4.516H92.955a4.519,4.519,0,0,0,0,9.038h48.074a4.515,4.515,0,0,0,4.516-4.522M203.1,140.2a4.515,4.515,0,0,0-4.516-4.522H150.514a4.519,4.519,0,0,0,0,9.038h48.074A4.514,4.514,0,0,0,203.1,140.2m0,20.927a4.514,4.514,0,0,0-4.516-4.516H150.514a4.516,4.516,0,0,0,0,9.032h48.074a4.514,4.514,0,0,0,4.516-4.516m0,20.927a4.514,4.514,0,0,0-4.516-4.516H150.514a4.516,4.516,0,0,0,0,9.032h48.074a4.514,4.514,0,0,0,4.516-4.516M166.7,35.545a5.235,5.235,0,1,0-5.235,5.235,5.234,5.234,0,0,0,5.235-5.235m15.693,0a5.232,5.232,0,1,0-5.229,5.235,5.233,5.233,0,0,0,5.229-5.235m15.7,0a5.232,5.232,0,1,0-5.229,5.235,5.233,5.233,0,0,0,5.229-5.235m15.7,0a5.232,5.232,0,1,0-5.235,5.235,5.234,5.234,0,0,0,5.235-5.235m15.7,0a5.232,5.232,0,1,0-5.235,5.235,5.234,5.234,0,0,0,5.235-5.235m15.7,0a5.235,5.235,0,1,0-5.235,5.235,5.234,5.234,0,0,0,5.235-5.235M166.7,77.405a5.235,5.235,0,1,0-5.235,5.229,5.234,5.234,0,0,0,5.235-5.229m15.693,0a5.232,5.232,0,1,0-5.229,5.229,5.233,5.233,0,0,0,5.229-5.229m15.7,0a5.232,5.232,0,1,0-5.229,5.229,5.233,5.233,0,0,0,5.229-5.229m15.7,0a5.232,5.232,0,1,0-5.235,5.229,5.234,5.234,0,0,0,5.235-5.229m15.7,0a5.232,5.232,0,1,0-5.235,5.229,5.234,5.234,0,0,0,5.235-5.229m15.7,0a5.235,5.235,0,1,0-5.235,5.229,5.234,5.234,0,0,0,5.235-5.229m-24.855,60.173a5.232,5.232,0,1,0-5.235,5.235,5.234,5.234,0,0,0,5.235-5.235m15.7,0a5.235,5.235,0,1,0-5.235,5.235,5.234,5.234,0,0,0,5.235-5.235m15.693,0a5.232,5.232,0,1,0-5.229,5.235,5.233,5.233,0,0,0,5.229-5.235m15.7,0a5.232,5.232,0,1,0-5.229,5.235,5.233,5.233,0,0,0,5.229-5.235m15.7,0a5.232,5.232,0,1,0-5.235,5.235,5.234,5.234,0,0,0,5.235-5.235m15.7,0a5.232,5.232,0,1,0-5.235,5.235,5.234,5.234,0,0,0,5.235-5.235m-78.486,43.168a5.232,5.232,0,1,0-5.235,5.235,5.234,5.234,0,0,0,5.235-5.235m15.7,0a5.235,5.235,0,1,0-5.235,5.235,5.234,5.234,0,0,0,5.235-5.235m15.693,0a5.232,5.232,0,1,0-5.229,5.235,5.233,5.233,0,0,0,5.229-5.235m15.7,0a5.232,5.232,0,1,0-5.229,5.235,5.233,5.233,0,0,0,5.229-5.235m15.7,0a5.232,5.232,0,1,0-5.235,5.235,5.234,5.234,0,0,0,5.235-5.235m15.7,0a5.232,5.232,0,1,0-5.235,5.235,5.234,5.234,0,0,0,5.235-5.235" transform="translate(231.489 141.217)" fill="#fff"/></g></g><g transform="translate(4688 -2033.78)"><g transform="translate(609 1529)"><g clip-path="url(#b)"><g clip-path="url(#b)"><path d="M248.836,69.586H244.41a1.091,1.091,0,1,1,0-2.183h4.426a1.091,1.091,0,0,1,0,2.183m1.091,3.968a1.092,1.092,0,0,0-1.091-1.093H244.41a1.092,1.092,0,0,0,0,2.184h4.426a1.09,1.09,0,0,0,1.091-1.091m0,5.059a1.09,1.09,0,0,0-1.091-1.091H244.41a1.091,1.091,0,1,0,0,2.181h4.426a1.091,1.091,0,0,0,1.091-1.09m0,5.058a1.091,1.091,0,0,0-1.091-1.093H244.41a1.091,1.091,0,1,0,0,2.183h4.426a1.091,1.091,0,0,0,1.091-1.09m0,5.058a1.091,1.091,0,0,0-1.091-1.093H244.41a1.092,1.092,0,0,0,0,2.184h4.426a1.09,1.09,0,0,0,1.091-1.091m0,5.059a1.092,1.092,0,0,0-1.091-1.091H244.41a1.092,1.092,0,0,0,0,2.184h4.426a1.092,1.092,0,0,0,1.091-1.093m0,5.058a1.092,1.092,0,0,0-1.091-1.091H244.41a1.092,1.092,0,0,0,0,2.184h4.426a1.091,1.091,0,0,0,1.091-1.093m0,5.058a1.091,1.091,0,0,0-1.091-1.09H244.41a1.091,1.091,0,1,0,0,2.181h4.426a1.09,1.09,0,0,0,1.091-1.091M266.486,68.5a1.091,1.091,0,0,0-1.091-1.093H253.776a1.091,1.091,0,0,0,0,2.183h11.618a1.091,1.091,0,0,0,1.091-1.09m0,5.058a1.092,1.092,0,0,0-1.091-1.093H253.776a1.092,1.092,0,0,0,0,2.184h11.618a1.09,1.09,0,0,0,1.091-1.091m0,5.059a1.09,1.09,0,0,0-1.091-1.091H253.776a1.091,1.091,0,1,0,0,2.181h11.618a1.091,1.091,0,0,0,1.091-1.09m0,5.058a1.091,1.091,0,0,0-1.091-1.093H253.776a1.091,1.091,0,0,0,0,2.183h11.618a1.091,1.091,0,0,0,1.091-1.09m0,5.058a1.091,1.091,0,0,0-1.091-1.093H253.776a1.092,1.092,0,0,0,0,2.184h11.618a1.09,1.09,0,0,0,1.091-1.091m13.91,5.059A1.092,1.092,0,0,0,279.3,92.7H267.686a1.092,1.092,0,0,0,0,2.184H279.3a1.092,1.092,0,0,0,1.091-1.093m0,5.058a1.092,1.092,0,0,0-1.091-1.091H267.686a1.092,1.092,0,0,0,0,2.184H279.3a1.091,1.091,0,0,0,1.091-1.093m0,5.058a1.091,1.091,0,0,0-1.091-1.09H267.686a1.091,1.091,0,1,0,0,2.181H279.3A1.09,1.09,0,0,0,280.4,103.9M271.6,68.5a1.265,1.265,0,1,0-1.265,1.265A1.266,1.266,0,0,0,271.6,68.5m3.792,0a1.264,1.264,0,1,0-1.264,1.265,1.266,1.266,0,0,0,1.264-1.265m3.794,0a1.264,1.264,0,1,0-1.264,1.265,1.266,1.266,0,0,0,1.264-1.265m3.794,0a1.264,1.264,0,1,0-1.264,1.265A1.266,1.266,0,0,0,282.98,68.5m3.794,0a1.264,1.264,0,1,0-1.265,1.265,1.266,1.266,0,0,0,1.265-1.265m3.794,0a1.265,1.265,0,1,0-1.265,1.265,1.266,1.266,0,0,0,1.265-1.265M271.6,78.613a1.265,1.265,0,1,0-1.265,1.264,1.265,1.265,0,0,0,1.265-1.264m3.792,0a1.264,1.264,0,1,0-1.264,1.264,1.265,1.265,0,0,0,1.264-1.264m3.794,0a1.264,1.264,0,1,0-1.264,1.264,1.265,1.265,0,0,0,1.264-1.264m3.794,0a1.264,1.264,0,1,0-1.264,1.264,1.265,1.265,0,0,0,1.264-1.264m3.794,0a1.264,1.264,0,1,0-1.265,1.264,1.265,1.265,0,0,0,1.265-1.264m3.794,0a1.265,1.265,0,1,0-1.265,1.264,1.265,1.265,0,0,0,1.265-1.264m-6.007,14.542A1.264,1.264,0,1,0,283.3,94.42a1.265,1.265,0,0,0,1.265-1.265m3.794,0a1.265,1.265,0,1,0-1.265,1.265,1.265,1.265,0,0,0,1.265-1.265m3.793,0a1.264,1.264,0,1,0-1.264,1.265,1.265,1.265,0,0,0,1.264-1.265m3.794,0a1.264,1.264,0,1,0-1.264,1.265,1.265,1.265,0,0,0,1.264-1.265m3.794,0a1.264,1.264,0,1,0-1.264,1.265,1.265,1.265,0,0,0,1.264-1.265m3.794,0a1.264,1.264,0,1,0-1.265,1.265,1.265,1.265,0,0,0,1.265-1.265m-18.968,10.431a1.264,1.264,0,1,0-1.265,1.265,1.265,1.265,0,0,0,1.265-1.265m3.794,0a1.265,1.265,0,1,0-1.265,1.265,1.265,1.265,0,0,0,1.265-1.265m3.793,0a1.264,1.264,0,1,0-1.264,1.265,1.264,1.264,0,0,0,1.264-1.265m3.794,0a1.264,1.264,0,1,0-1.264,1.265,1.264,1.264,0,0,0,1.264-1.265m3.794,0a1.264,1.264,0,1,0-1.264,1.265,1.264,1.264,0,0,0,1.264-1.265m3.794,0a1.264,1.264,0,1,0-1.265,1.265,1.265,1.265,0,0,0,1.265-1.265" transform="translate(89.458 24.718)" fill="#fff"/><path d="M248.836,99.182H244.41a1.091,1.091,0,1,1,0-2.183h4.426a1.091,1.091,0,0,1,0,2.183m1.091,3.966a1.091,1.091,0,0,0-1.091-1.091H244.41a1.092,1.092,0,0,0,0,2.184h4.426a1.091,1.091,0,0,0,1.091-1.093m0,5.059a1.091,1.091,0,0,0-1.091-1.091H244.41a1.091,1.091,0,1,0,0,2.183h4.426a1.091,1.091,0,0,0,1.091-1.091m0,5.058a1.091,1.091,0,0,0-1.091-1.091H244.41a1.091,1.091,0,1,0,0,2.183h4.426a1.091,1.091,0,0,0,1.091-1.091m0,5.058a1.091,1.091,0,0,0-1.091-1.091H244.41a1.092,1.092,0,0,0,0,2.184h4.426a1.091,1.091,0,0,0,1.091-1.093m0,5.06a1.091,1.091,0,0,0-1.091-1.093H244.41a1.092,1.092,0,0,0,0,2.184h4.426a1.091,1.091,0,0,0,1.091-1.091m0,5.058a1.091,1.091,0,0,0-1.091-1.091H244.41a1.091,1.091,0,1,0,0,2.183h4.426a1.091,1.091,0,0,0,1.091-1.091m0,5.058a1.091,1.091,0,0,0-1.091-1.091H244.41a1.091,1.091,0,1,0,0,2.183h4.426a1.091,1.091,0,0,0,1.091-1.091m16.558-35.407A1.091,1.091,0,0,0,265.394,97H253.776a1.091,1.091,0,0,0,0,2.183h11.618a1.091,1.091,0,0,0,1.091-1.091m0,5.058a1.091,1.091,0,0,0-1.091-1.091H253.776a1.092,1.092,0,0,0,0,2.184h11.618a1.091,1.091,0,0,0,1.091-1.093m0,5.059a1.091,1.091,0,0,0-1.091-1.091H253.776a1.091,1.091,0,0,0,0,2.183h11.618a1.091,1.091,0,0,0,1.091-1.091m0,5.058a1.091,1.091,0,0,0-1.091-1.091H253.776a1.091,1.091,0,0,0,0,2.183h11.618a1.091,1.091,0,0,0,1.091-1.091m0,5.058a1.091,1.091,0,0,0-1.091-1.091H253.776a1.092,1.092,0,0,0,0,2.184h11.618a1.091,1.091,0,0,0,1.091-1.093m13.91,5.06a1.091,1.091,0,0,0-1.091-1.093H267.686a1.092,1.092,0,0,0,0,2.184H279.3a1.091,1.091,0,0,0,1.091-1.091m0,5.058a1.091,1.091,0,0,0-1.091-1.091H267.686a1.091,1.091,0,0,0,0,2.183H279.3a1.091,1.091,0,0,0,1.091-1.091m0,5.058a1.091,1.091,0,0,0-1.091-1.091H267.686a1.091,1.091,0,0,0,0,2.183H279.3A1.091,1.091,0,0,0,280.4,133.5m-8.8-35.407a1.265,1.265,0,1,0-1.265,1.265,1.265,1.265,0,0,0,1.265-1.265m3.792,0a1.264,1.264,0,1,0-1.264,1.265,1.265,1.265,0,0,0,1.264-1.265m3.794,0a1.264,1.264,0,1,0-1.264,1.265,1.265,1.265,0,0,0,1.264-1.265m3.794,0a1.264,1.264,0,1,0-1.264,1.265,1.265,1.265,0,0,0,1.264-1.265m3.794,0a1.264,1.264,0,1,0-1.265,1.265,1.265,1.265,0,0,0,1.265-1.265m3.794,0a1.265,1.265,0,1,0-1.265,1.265,1.265,1.265,0,0,0,1.265-1.265M271.6,108.208a1.265,1.265,0,1,0-1.265,1.265,1.265,1.265,0,0,0,1.265-1.265m3.792,0a1.264,1.264,0,1,0-1.264,1.265,1.265,1.265,0,0,0,1.264-1.265m3.794,0a1.264,1.264,0,1,0-1.264,1.265,1.265,1.265,0,0,0,1.264-1.265m3.794,0a1.264,1.264,0,1,0-1.264,1.265,1.265,1.265,0,0,0,1.264-1.265m3.794,0a1.264,1.264,0,1,0-1.265,1.265,1.265,1.265,0,0,0,1.265-1.265m3.794,0a1.265,1.265,0,1,0-1.265,1.265,1.265,1.265,0,0,0,1.265-1.265m-6.007,14.542a1.264,1.264,0,1,0-1.265,1.265,1.265,1.265,0,0,0,1.265-1.265m3.794,0a1.265,1.265,0,1,0-1.265,1.265,1.265,1.265,0,0,0,1.265-1.265m3.793,0a1.264,1.264,0,1,0-1.264,1.265,1.265,1.265,0,0,0,1.264-1.265m3.794,0a1.264,1.264,0,1,0-1.264,1.265,1.265,1.265,0,0,0,1.264-1.265m3.794,0a1.264,1.264,0,1,0-1.264,1.265,1.265,1.265,0,0,0,1.264-1.265m3.794,0a1.264,1.264,0,1,0-1.265,1.265,1.265,1.265,0,0,0,1.265-1.265m-18.968,10.432a1.264,1.264,0,1,0-1.265,1.265,1.265,1.265,0,0,0,1.265-1.265m3.794,0a1.265,1.265,0,1,0-1.265,1.265,1.265,1.265,0,0,0,1.265-1.265m3.793,0a1.264,1.264,0,1,0-1.264,1.265,1.265,1.265,0,0,0,1.264-1.265m3.794,0a1.264,1.264,0,1,0-1.264,1.265,1.265,1.265,0,0,0,1.264-1.265m3.794,0a1.264,1.264,0,1,0-1.264,1.265,1.265,1.265,0,0,0,1.264-1.265m3.794,0a1.264,1.264,0,1,0-1.265,1.265,1.265,1.265,0,0,0,1.265-1.265" transform="translate(89.458 35.599)" fill="#fff"/><path d="M248.836,129.492H244.41a1.091,1.091,0,1,1,0-2.183h4.426a1.091,1.091,0,0,1,0,2.183m1.091,3.966a1.091,1.091,0,0,0-1.091-1.091H244.41a1.092,1.092,0,0,0,0,2.184h4.426a1.091,1.091,0,0,0,1.091-1.093m0,5.059a1.091,1.091,0,0,0-1.091-1.091H244.41a1.091,1.091,0,1,0,0,2.183h4.426a1.091,1.091,0,0,0,1.091-1.091m0,5.058a1.091,1.091,0,0,0-1.091-1.091H244.41a1.091,1.091,0,1,0,0,2.183h4.426a1.091,1.091,0,0,0,1.091-1.091m0,5.058a1.091,1.091,0,0,0-1.091-1.091H244.41a1.092,1.092,0,0,0,0,2.184h4.426a1.091,1.091,0,0,0,1.091-1.093m0,5.06a1.091,1.091,0,0,0-1.091-1.093H244.41a1.092,1.092,0,0,0,0,2.184h4.426a1.091,1.091,0,0,0,1.091-1.091m0,5.058a1.091,1.091,0,0,0-1.091-1.091H244.41a1.091,1.091,0,1,0,0,2.183h4.426a1.091,1.091,0,0,0,1.091-1.091m0,5.058a1.091,1.091,0,0,0-1.091-1.091H244.41a1.091,1.091,0,1,0,0,2.183h4.426a1.091,1.091,0,0,0,1.091-1.091M266.486,128.4a1.091,1.091,0,0,0-1.091-1.091H253.776a1.091,1.091,0,0,0,0,2.183h11.618a1.091,1.091,0,0,0,1.091-1.091m0,5.058a1.091,1.091,0,0,0-1.091-1.091H253.776a1.092,1.092,0,0,0,0,2.184h11.618a1.091,1.091,0,0,0,1.091-1.093m0,5.059a1.091,1.091,0,0,0-1.091-1.091H253.776a1.091,1.091,0,0,0,0,2.183h11.618a1.091,1.091,0,0,0,1.091-1.091m0,5.058a1.091,1.091,0,0,0-1.091-1.091H253.776a1.091,1.091,0,0,0,0,2.183h11.618a1.091,1.091,0,0,0,1.091-1.091m0,5.058a1.091,1.091,0,0,0-1.091-1.091H253.776a1.092,1.092,0,0,0,0,2.184h11.618a1.091,1.091,0,0,0,1.091-1.093m13.91,5.06A1.091,1.091,0,0,0,279.3,152.6H267.686a1.092,1.092,0,0,0,0,2.184H279.3a1.091,1.091,0,0,0,1.091-1.091m0,5.058a1.091,1.091,0,0,0-1.091-1.091H267.686a1.091,1.091,0,0,0,0,2.183H279.3a1.091,1.091,0,0,0,1.091-1.091m0,5.058a1.091,1.091,0,0,0-1.091-1.091H267.686a1.091,1.091,0,0,0,0,2.183H279.3a1.091,1.091,0,0,0,1.091-1.091M271.6,128.4a1.265,1.265,0,1,0-1.265,1.265A1.265,1.265,0,0,0,271.6,128.4m3.792,0a1.264,1.264,0,1,0-1.264,1.265,1.265,1.265,0,0,0,1.264-1.265m3.794,0a1.264,1.264,0,1,0-1.264,1.265,1.265,1.265,0,0,0,1.264-1.265m3.794,0a1.264,1.264,0,1,0-1.264,1.265,1.265,1.265,0,0,0,1.264-1.265m3.794,0a1.264,1.264,0,1,0-1.265,1.265,1.265,1.265,0,0,0,1.265-1.265m3.794,0a1.265,1.265,0,1,0-1.265,1.265,1.265,1.265,0,0,0,1.265-1.265M271.6,138.518a1.265,1.265,0,1,0-1.265,1.264,1.265,1.265,0,0,0,1.265-1.264m3.792,0a1.264,1.264,0,1,0-1.264,1.264,1.265,1.265,0,0,0,1.264-1.264m3.794,0a1.264,1.264,0,1,0-1.264,1.264,1.265,1.265,0,0,0,1.264-1.264m3.794,0a1.264,1.264,0,1,0-1.264,1.264,1.265,1.265,0,0,0,1.264-1.264m3.794,0a1.264,1.264,0,1,0-1.265,1.264,1.265,1.265,0,0,0,1.265-1.264m3.794,0a1.265,1.265,0,1,0-1.265,1.264,1.265,1.265,0,0,0,1.265-1.264m-6.007,14.542a1.264,1.264,0,1,0-1.265,1.265,1.265,1.265,0,0,0,1.265-1.265m3.794,0a1.265,1.265,0,1,0-1.265,1.265,1.265,1.265,0,0,0,1.265-1.265m3.793,0a1.264,1.264,0,1,0-1.264,1.265,1.265,1.265,0,0,0,1.264-1.265m3.794,0a1.264,1.264,0,1,0-1.264,1.265,1.265,1.265,0,0,0,1.264-1.265m3.794,0a1.264,1.264,0,1,0-1.264,1.265,1.265,1.265,0,0,0,1.264-1.265m3.794,0a1.264,1.264,0,1,0-1.265,1.265,1.265,1.265,0,0,0,1.265-1.265m-18.968,10.432a1.264,1.264,0,1,0-1.265,1.265,1.265,1.265,0,0,0,1.265-1.265m3.794,0a1.265,1.265,0,1,0-1.265,1.265,1.265,1.265,0,0,0,1.265-1.265m3.793,0a1.264,1.264,0,1,0-1.264,1.265,1.265,1.265,0,0,0,1.264-1.265m3.794,0a1.264,1.264,0,1,0-1.264,1.265,1.265,1.265,0,0,0,1.264-1.265m3.794,0a1.264,1.264,0,1,0-1.264,1.265,1.265,1.265,0,0,0,1.264-1.265m3.794,0a1.264,1.264,0,1,0-1.265,1.265,1.265,1.265,0,0,0,1.265-1.265" transform="translate(89.458 46.742)" fill="#fff"/><path d="M298.521,69.586H294.1a1.091,1.091,0,1,1,0-2.183h4.426a1.091,1.091,0,0,1,0,2.183m1.091,3.968a1.092,1.092,0,0,0-1.091-1.093H294.1a1.092,1.092,0,0,0,0,2.184h4.426a1.09,1.09,0,0,0,1.091-1.091m0,5.059a1.09,1.09,0,0,0-1.091-1.091H294.1a1.091,1.091,0,1,0,0,2.181h4.426a1.091,1.091,0,0,0,1.091-1.09m0,5.058a1.091,1.091,0,0,0-1.091-1.093H294.1a1.091,1.091,0,1,0,0,2.183h4.426a1.091,1.091,0,0,0,1.091-1.09m0,5.058a1.091,1.091,0,0,0-1.091-1.093H294.1a1.092,1.092,0,0,0,0,2.184h4.426a1.09,1.09,0,0,0,1.091-1.091m0,5.059a1.092,1.092,0,0,0-1.091-1.091H294.1a1.092,1.092,0,0,0,0,2.184h4.426a1.092,1.092,0,0,0,1.091-1.093m0,5.058a1.092,1.092,0,0,0-1.091-1.091H294.1a1.092,1.092,0,0,0,0,2.184h4.426a1.091,1.091,0,0,0,1.091-1.093m0,5.058a1.091,1.091,0,0,0-1.091-1.09H294.1a1.091,1.091,0,1,0,0,2.181h4.426a1.09,1.09,0,0,0,1.091-1.091M316.171,68.5a1.091,1.091,0,0,0-1.091-1.093H303.461a1.091,1.091,0,1,0,0,2.183h11.618a1.091,1.091,0,0,0,1.091-1.09m0,5.058a1.092,1.092,0,0,0-1.091-1.093H303.461a1.092,1.092,0,0,0,0,2.184h11.618a1.09,1.09,0,0,0,1.091-1.091m0,5.059a1.09,1.09,0,0,0-1.091-1.091H303.461a1.091,1.091,0,1,0,0,2.181h11.618a1.091,1.091,0,0,0,1.091-1.09m0,5.058a1.091,1.091,0,0,0-1.091-1.093H303.461a1.091,1.091,0,1,0,0,2.183h11.618a1.091,1.091,0,0,0,1.091-1.09m0,5.058a1.091,1.091,0,0,0-1.091-1.093H303.461a1.092,1.092,0,0,0,0,2.184h11.618a1.09,1.09,0,0,0,1.091-1.091m13.91,5.059A1.092,1.092,0,0,0,328.99,92.7H317.372a1.092,1.092,0,0,0,0,2.184H328.99a1.092,1.092,0,0,0,1.091-1.093m0,5.058a1.092,1.092,0,0,0-1.091-1.091H317.372a1.092,1.092,0,0,0,0,2.184H328.99a1.091,1.091,0,0,0,1.091-1.093m0,5.058a1.091,1.091,0,0,0-1.091-1.09H317.372a1.091,1.091,0,1,0,0,2.181H328.99a1.09,1.09,0,0,0,1.091-1.091m-8.8-35.406a1.265,1.265,0,1,0-1.265,1.265,1.266,1.266,0,0,0,1.265-1.265m3.792,0a1.264,1.264,0,1,0-1.264,1.265,1.266,1.266,0,0,0,1.264-1.265m3.794,0a1.264,1.264,0,1,0-1.264,1.265,1.266,1.266,0,0,0,1.264-1.265m3.794,0a1.264,1.264,0,1,0-1.265,1.265,1.266,1.266,0,0,0,1.265-1.265m3.794,0a1.264,1.264,0,1,0-1.265,1.265,1.266,1.266,0,0,0,1.265-1.265m3.794,0a1.265,1.265,0,1,0-1.265,1.265,1.266,1.266,0,0,0,1.265-1.265M321.284,78.613a1.265,1.265,0,1,0-1.265,1.264,1.265,1.265,0,0,0,1.265-1.264m3.792,0a1.264,1.264,0,1,0-1.264,1.264,1.265,1.265,0,0,0,1.264-1.264m3.794,0a1.264,1.264,0,1,0-1.264,1.264,1.265,1.265,0,0,0,1.264-1.264m3.794,0a1.264,1.264,0,1,0-1.265,1.264,1.265,1.265,0,0,0,1.265-1.264m3.794,0a1.264,1.264,0,1,0-1.265,1.264,1.265,1.265,0,0,0,1.265-1.264m3.794,0a1.265,1.265,0,1,0-1.265,1.264,1.265,1.265,0,0,0,1.265-1.264m-6.007,14.542a1.264,1.264,0,1,0-1.265,1.265,1.265,1.265,0,0,0,1.265-1.265m3.794,0a1.265,1.265,0,1,0-1.265,1.265,1.265,1.265,0,0,0,1.265-1.265m3.793,0a1.264,1.264,0,1,0-1.264,1.265,1.265,1.265,0,0,0,1.264-1.265m3.794,0a1.264,1.264,0,1,0-1.264,1.265,1.265,1.265,0,0,0,1.264-1.265m3.794,0a1.264,1.264,0,1,0-1.264,1.265,1.265,1.265,0,0,0,1.264-1.265m3.794,0a1.264,1.264,0,1,0-1.265,1.265,1.265,1.265,0,0,0,1.265-1.265m-18.968,10.431a1.264,1.264,0,1,0-1.265,1.265,1.265,1.265,0,0,0,1.265-1.265m3.794,0a1.265,1.265,0,1,0-1.265,1.265,1.265,1.265,0,0,0,1.265-1.265m3.793,0a1.264,1.264,0,1,0-1.264,1.265,1.264,1.264,0,0,0,1.264-1.265m3.794,0a1.264,1.264,0,1,0-1.264,1.265,1.264,1.264,0,0,0,1.264-1.265m3.794,0a1.264,1.264,0,1,0-1.264,1.265,1.264,1.264,0,0,0,1.264-1.265m3.794,0a1.264,1.264,0,1,0-1.265,1.265,1.265,1.265,0,0,0,1.265-1.265" transform="translate(107.725 24.718)" fill="#fff"/><path d="M298.521,99.9H294.1a1.091,1.091,0,1,1,0-2.183h4.426a1.091,1.091,0,0,1,0,2.183m1.091,3.966a1.091,1.091,0,0,0-1.091-1.091H294.1a1.092,1.092,0,0,0,0,2.184h4.426a1.092,1.092,0,0,0,1.091-1.093m0,5.059a1.091,1.091,0,0,0-1.091-1.091H294.1a1.091,1.091,0,1,0,0,2.183h4.426a1.091,1.091,0,0,0,1.091-1.091m0,5.058a1.091,1.091,0,0,0-1.091-1.091H294.1a1.091,1.091,0,1,0,0,2.183h4.426a1.091,1.091,0,0,0,1.091-1.091m0,5.058a1.091,1.091,0,0,0-1.091-1.091H294.1a1.092,1.092,0,0,0,0,2.184h4.426a1.091,1.091,0,0,0,1.091-1.093m0,5.06A1.091,1.091,0,0,0,298.521,123H294.1a1.092,1.092,0,0,0,0,2.184h4.426a1.091,1.091,0,0,0,1.091-1.091m0,5.058a1.091,1.091,0,0,0-1.091-1.091H294.1a1.091,1.091,0,1,0,0,2.183h4.426a1.091,1.091,0,0,0,1.091-1.091m0,5.058a1.091,1.091,0,0,0-1.091-1.091H294.1a1.091,1.091,0,1,0,0,2.183h4.426a1.091,1.091,0,0,0,1.091-1.091m16.558-35.407a1.091,1.091,0,0,0-1.091-1.091H303.461a1.091,1.091,0,1,0,0,2.183h11.618a1.091,1.091,0,0,0,1.091-1.091m0,5.058a1.091,1.091,0,0,0-1.091-1.091H303.461a1.092,1.092,0,0,0,0,2.184h11.618a1.092,1.092,0,0,0,1.091-1.093m0,5.059a1.091,1.091,0,0,0-1.091-1.091H303.461a1.091,1.091,0,1,0,0,2.183h11.618a1.091,1.091,0,0,0,1.091-1.091m0,5.058a1.091,1.091,0,0,0-1.091-1.091H303.461a1.091,1.091,0,1,0,0,2.183h11.618a1.091,1.091,0,0,0,1.091-1.091m0,5.058a1.091,1.091,0,0,0-1.091-1.091H303.461a1.092,1.092,0,0,0,0,2.184h11.618a1.091,1.091,0,0,0,1.091-1.093m13.91,5.06A1.091,1.091,0,0,0,328.99,123H317.372a1.092,1.092,0,0,0,0,2.184H328.99a1.091,1.091,0,0,0,1.091-1.091m0,5.058a1.091,1.091,0,0,0-1.091-1.091H317.372a1.091,1.091,0,1,0,0,2.183H328.99a1.091,1.091,0,0,0,1.091-1.091m0,5.058a1.091,1.091,0,0,0-1.091-1.091H317.372a1.091,1.091,0,1,0,0,2.183H328.99a1.091,1.091,0,0,0,1.091-1.091m-8.8-35.407a1.265,1.265,0,1,0-1.265,1.265,1.265,1.265,0,0,0,1.265-1.265m3.792,0a1.264,1.264,0,1,0-1.264,1.265,1.265,1.265,0,0,0,1.264-1.265m3.794,0a1.264,1.264,0,1,0-1.264,1.265,1.265,1.265,0,0,0,1.264-1.265m3.794,0a1.264,1.264,0,1,0-1.265,1.265,1.265,1.265,0,0,0,1.265-1.265m3.794,0a1.264,1.264,0,1,0-1.265,1.265,1.265,1.265,0,0,0,1.265-1.265m3.794,0a1.265,1.265,0,1,0-1.265,1.265,1.265,1.265,0,0,0,1.265-1.265m-18.968,10.117a1.265,1.265,0,1,0-1.265,1.264,1.265,1.265,0,0,0,1.265-1.264m3.792,0a1.264,1.264,0,1,0-1.264,1.264,1.265,1.265,0,0,0,1.264-1.264m3.794,0a1.264,1.264,0,1,0-1.264,1.264,1.265,1.265,0,0,0,1.264-1.264m3.794,0a1.264,1.264,0,1,0-1.265,1.264,1.265,1.265,0,0,0,1.265-1.264m3.794,0a1.264,1.264,0,1,0-1.265,1.264,1.265,1.265,0,0,0,1.265-1.264m3.794,0a1.265,1.265,0,1,0-1.265,1.264,1.265,1.265,0,0,0,1.265-1.264m-6.007,14.542a1.264,1.264,0,1,0-1.265,1.264,1.265,1.265,0,0,0,1.265-1.264m3.794,0a1.265,1.265,0,1,0-1.265,1.264,1.265,1.265,0,0,0,1.265-1.264m3.793,0a1.264,1.264,0,1,0-1.264,1.264,1.265,1.265,0,0,0,1.264-1.264m3.794,0a1.264,1.264,0,1,0-1.264,1.264,1.265,1.265,0,0,0,1.264-1.264m3.794,0a1.264,1.264,0,1,0-1.264,1.264,1.265,1.265,0,0,0,1.264-1.264m3.794,0a1.264,1.264,0,1,0-1.265,1.264,1.265,1.265,0,0,0,1.265-1.264M334.246,133.9a1.264,1.264,0,1,0-1.265,1.265,1.265,1.265,0,0,0,1.265-1.265m3.794,0a1.265,1.265,0,1,0-1.265,1.265,1.265,1.265,0,0,0,1.265-1.265m3.793,0a1.264,1.264,0,1,0-1.264,1.265,1.265,1.265,0,0,0,1.264-1.265m3.794,0a1.264,1.264,0,1,0-1.264,1.265,1.265,1.265,0,0,0,1.264-1.265m3.794,0a1.264,1.264,0,1,0-1.264,1.265,1.265,1.265,0,0,0,1.264-1.265m3.794,0a1.264,1.264,0,1,0-1.265,1.265,1.265,1.265,0,0,0,1.265-1.265" transform="translate(107.725 35.861)" fill="#fff"/><path d="M139.9,2.356h-4.426a1.092,1.092,0,0,1,0-2.184H139.9a1.092,1.092,0,0,1,0,2.184m1.091,3.965A1.092,1.092,0,0,0,139.9,5.23h-4.426a1.093,1.093,0,0,0,0,2.186H139.9a1.092,1.092,0,0,0,1.091-1.094m0,5.06a1.091,1.091,0,0,0-1.091-1.093h-4.426a1.092,1.092,0,0,0,0,2.184H139.9a1.091,1.091,0,0,0,1.091-1.091m0,5.058a1.091,1.091,0,0,0-1.091-1.093h-4.426a1.092,1.092,0,0,0,0,2.184H139.9a1.091,1.091,0,0,0,1.091-1.091m0,5.056A1.091,1.091,0,0,0,139.9,20.4h-4.426a1.093,1.093,0,0,0,0,2.186H139.9a1.092,1.092,0,0,0,1.091-1.094m0,5.062a1.092,1.092,0,0,0-1.091-1.094h-4.426a1.093,1.093,0,0,0,0,2.186H139.9a1.092,1.092,0,0,0,1.091-1.091m0,5.056a1.091,1.091,0,0,0-1.091-1.091h-4.426a1.091,1.091,0,0,0,0,2.183H139.9a1.09,1.09,0,0,0,1.091-1.091m0,5.058a1.09,1.09,0,0,0-1.091-1.09h-4.426a1.091,1.091,0,1,0,0,2.181H139.9a1.09,1.09,0,0,0,1.091-1.091M157.547,1.264A1.091,1.091,0,0,0,156.455.172H144.837a1.092,1.092,0,0,0,0,2.184h11.618a1.091,1.091,0,0,0,1.091-1.093m0,5.058a1.092,1.092,0,0,0-1.091-1.091H144.837a1.093,1.093,0,0,0,0,2.186h11.618a1.091,1.091,0,0,0,1.091-1.094m0,5.06a1.091,1.091,0,0,0-1.091-1.093H144.837a1.092,1.092,0,0,0,0,2.184h11.618a1.091,1.091,0,0,0,1.091-1.091m0,5.058a1.091,1.091,0,0,0-1.091-1.093H144.837a1.092,1.092,0,0,0,0,2.184h11.618a1.091,1.091,0,0,0,1.091-1.091m0,5.056a1.091,1.091,0,0,0-1.091-1.091H144.837a1.093,1.093,0,0,0,0,2.186h11.618a1.091,1.091,0,0,0,1.091-1.094m13.91,5.062a1.092,1.092,0,0,0-1.091-1.094H158.748a1.093,1.093,0,0,0,0,2.186h11.618a1.092,1.092,0,0,0,1.091-1.091m0,5.056a1.091,1.091,0,0,0-1.091-1.091H158.748a1.091,1.091,0,0,0,0,2.183h11.618a1.09,1.09,0,0,0,1.091-1.091m0,5.058a1.09,1.09,0,0,0-1.091-1.09H158.748a1.091,1.091,0,1,0,0,2.181h11.618a1.09,1.09,0,0,0,1.091-1.091m-8.8-35.407A1.264,1.264,0,1,0,161.4,2.53a1.263,1.263,0,0,0,1.264-1.266m3.794,0a1.264,1.264,0,1,0-1.264,1.266,1.264,1.264,0,0,0,1.264-1.266m3.794,0a1.264,1.264,0,1,0-1.264,1.266,1.264,1.264,0,0,0,1.264-1.266m3.794,0a1.264,1.264,0,1,0-1.265,1.266,1.265,1.265,0,0,0,1.265-1.266m3.794,0a1.264,1.264,0,1,0-1.265,1.266,1.265,1.265,0,0,0,1.265-1.266m3.794,0a1.265,1.265,0,1,0-1.265,1.266,1.265,1.265,0,0,0,1.265-1.266M162.659,11.382a1.264,1.264,0,1,0-1.264,1.264,1.264,1.264,0,0,0,1.264-1.264m3.794,0a1.264,1.264,0,1,0-1.264,1.264,1.265,1.265,0,0,0,1.264-1.264m3.794,0a1.264,1.264,0,1,0-1.264,1.264,1.265,1.265,0,0,0,1.264-1.264m3.794,0a1.264,1.264,0,1,0-1.265,1.264,1.265,1.265,0,0,0,1.265-1.264m3.794,0a1.264,1.264,0,1,0-1.265,1.264,1.265,1.265,0,0,0,1.265-1.264m3.794,0a1.265,1.265,0,1,0-1.265,1.264,1.265,1.265,0,0,0,1.265-1.264m-6.007,14.541a1.264,1.264,0,1,0-1.265,1.266,1.265,1.265,0,0,0,1.265-1.266m3.794,0a1.265,1.265,0,1,0-1.265,1.266,1.265,1.265,0,0,0,1.265-1.266m3.793,0a1.264,1.264,0,1,0-1.264,1.266,1.264,1.264,0,0,0,1.264-1.266m3.794,0a1.264,1.264,0,1,0-1.264,1.266A1.264,1.264,0,0,0,187,25.923m3.794,0a1.264,1.264,0,1,0-1.265,1.266,1.265,1.265,0,0,0,1.265-1.266m3.794,0a1.264,1.264,0,1,0-1.265,1.266,1.265,1.265,0,0,0,1.265-1.266M175.622,36.355a1.264,1.264,0,1,0-1.265,1.265,1.265,1.265,0,0,0,1.265-1.265m3.794,0a1.265,1.265,0,1,0-1.265,1.265,1.265,1.265,0,0,0,1.265-1.265m3.793,0a1.264,1.264,0,1,0-1.264,1.265,1.264,1.264,0,0,0,1.264-1.265m3.794,0a1.264,1.264,0,1,0-1.264,1.265A1.264,1.264,0,0,0,187,36.355m3.794,0a1.264,1.264,0,1,0-1.265,1.265,1.265,1.265,0,0,0,1.265-1.265m3.794,0a1.264,1.264,0,1,0-1.265,1.265,1.265,1.265,0,0,0,1.265-1.265" transform="translate(49.406)" fill="#fff"/><path d="M139.9,31.951h-4.426a1.091,1.091,0,0,1,0-2.183H139.9a1.091,1.091,0,0,1,0,2.183m1.091,3.966a1.091,1.091,0,0,0-1.091-1.091h-4.426a1.092,1.092,0,0,0,0,2.184H139.9a1.092,1.092,0,0,0,1.091-1.093m0,5.059a1.091,1.091,0,0,0-1.091-1.091h-4.426a1.091,1.091,0,0,0,0,2.183H139.9a1.091,1.091,0,0,0,1.091-1.091m0,5.058a1.091,1.091,0,0,0-1.091-1.091h-4.426a1.091,1.091,0,0,0,0,2.183H139.9a1.091,1.091,0,0,0,1.091-1.091m0,5.058A1.091,1.091,0,0,0,139.9,50h-4.426a1.092,1.092,0,0,0,0,2.184H139.9a1.091,1.091,0,0,0,1.091-1.093m0,5.06a1.091,1.091,0,0,0-1.091-1.093h-4.426a1.092,1.092,0,0,0,0,2.184H139.9a1.091,1.091,0,0,0,1.091-1.091m0,5.058a1.091,1.091,0,0,0-1.091-1.091h-4.426a1.091,1.091,0,0,0,0,2.183H139.9a1.091,1.091,0,0,0,1.091-1.091m0,5.058a1.091,1.091,0,0,0-1.091-1.091h-4.426a1.091,1.091,0,0,0,0,2.183H139.9a1.091,1.091,0,0,0,1.091-1.091M157.547,30.86a1.091,1.091,0,0,0-1.091-1.091H144.837a1.091,1.091,0,1,0,0,2.183h11.618a1.091,1.091,0,0,0,1.091-1.091m0,5.058a1.091,1.091,0,0,0-1.091-1.091H144.837a1.092,1.092,0,0,0,0,2.184h11.618a1.092,1.092,0,0,0,1.091-1.093m0,5.059a1.091,1.091,0,0,0-1.091-1.091H144.837a1.091,1.091,0,1,0,0,2.183h11.618a1.091,1.091,0,0,0,1.091-1.091m0,5.058a1.091,1.091,0,0,0-1.091-1.091H144.837a1.091,1.091,0,1,0,0,2.183h11.618a1.091,1.091,0,0,0,1.091-1.091m0,5.058A1.091,1.091,0,0,0,156.455,50H144.837a1.092,1.092,0,0,0,0,2.184h11.618a1.091,1.091,0,0,0,1.091-1.093m13.91,5.06a1.091,1.091,0,0,0-1.091-1.093H158.748a1.092,1.092,0,0,0,0,2.184h11.618a1.091,1.091,0,0,0,1.091-1.091m0,5.058a1.091,1.091,0,0,0-1.091-1.091H158.748a1.091,1.091,0,0,0,0,2.183h11.618a1.091,1.091,0,0,0,1.091-1.091m0,5.058a1.091,1.091,0,0,0-1.091-1.091H158.748a1.091,1.091,0,0,0,0,2.183h11.618a1.091,1.091,0,0,0,1.091-1.091m-8.8-35.407a1.264,1.264,0,1,0-1.264,1.265,1.264,1.264,0,0,0,1.264-1.265m3.794,0a1.264,1.264,0,1,0-1.264,1.265,1.265,1.265,0,0,0,1.264-1.265m3.794,0a1.264,1.264,0,1,0-1.264,1.265,1.265,1.265,0,0,0,1.264-1.265m3.794,0a1.264,1.264,0,1,0-1.265,1.265,1.265,1.265,0,0,0,1.265-1.265m3.794,0a1.264,1.264,0,1,0-1.265,1.265,1.265,1.265,0,0,0,1.265-1.265m3.794,0a1.265,1.265,0,1,0-1.265,1.265,1.265,1.265,0,0,0,1.265-1.265M162.659,40.977A1.264,1.264,0,1,0,161.4,42.24a1.264,1.264,0,0,0,1.264-1.264m3.794,0a1.264,1.264,0,1,0-1.264,1.264,1.265,1.265,0,0,0,1.264-1.264m3.794,0a1.264,1.264,0,1,0-1.264,1.264,1.265,1.265,0,0,0,1.264-1.264m3.794,0a1.264,1.264,0,1,0-1.265,1.264,1.265,1.265,0,0,0,1.265-1.264m3.794,0a1.264,1.264,0,1,0-1.265,1.264,1.265,1.265,0,0,0,1.265-1.264m3.794,0a1.265,1.265,0,1,0-1.265,1.264,1.265,1.265,0,0,0,1.265-1.264m-6.007,14.542a1.264,1.264,0,1,0-1.265,1.264,1.265,1.265,0,0,0,1.265-1.264m3.794,0a1.265,1.265,0,1,0-1.265,1.264,1.265,1.265,0,0,0,1.265-1.264m3.793,0a1.264,1.264,0,1,0-1.264,1.264,1.265,1.265,0,0,0,1.264-1.264m3.794,0a1.264,1.264,0,1,0-1.264,1.264A1.265,1.265,0,0,0,187,55.519m3.794,0a1.264,1.264,0,1,0-1.265,1.264,1.265,1.265,0,0,0,1.265-1.264m3.794,0a1.264,1.264,0,1,0-1.265,1.264,1.265,1.265,0,0,0,1.265-1.264M175.622,65.951a1.264,1.264,0,1,0-1.265,1.265,1.265,1.265,0,0,0,1.265-1.265m3.794,0a1.265,1.265,0,1,0-1.265,1.265,1.265,1.265,0,0,0,1.265-1.265m3.793,0a1.264,1.264,0,1,0-1.264,1.265,1.265,1.265,0,0,0,1.264-1.265m3.794,0a1.264,1.264,0,1,0-1.264,1.265A1.265,1.265,0,0,0,187,65.951m3.794,0a1.264,1.264,0,1,0-1.265,1.265,1.265,1.265,0,0,0,1.265-1.265m3.794,0a1.264,1.264,0,1,0-1.265,1.265,1.265,1.265,0,0,0,1.265-1.265" transform="translate(49.406 10.881)" fill="#fff"/><path d="M139.9,62.261h-4.426a1.091,1.091,0,0,1,0-2.183H139.9a1.091,1.091,0,0,1,0,2.183m1.091,3.966a1.091,1.091,0,0,0-1.091-1.091h-4.426a1.092,1.092,0,0,0,0,2.184H139.9a1.091,1.091,0,0,0,1.091-1.093m0,5.059A1.091,1.091,0,0,0,139.9,70.2h-4.426a1.091,1.091,0,0,0,0,2.183H139.9a1.091,1.091,0,0,0,1.091-1.091m0,5.058a1.091,1.091,0,0,0-1.091-1.091h-4.426a1.091,1.091,0,1,0,0,2.183H139.9a1.091,1.091,0,0,0,1.091-1.091m0,5.058A1.091,1.091,0,0,0,139.9,80.31h-4.426a1.092,1.092,0,0,0,0,2.184H139.9a1.091,1.091,0,0,0,1.091-1.093m0,5.06a1.091,1.091,0,0,0-1.091-1.093h-4.426a1.092,1.092,0,0,0,0,2.184H139.9a1.091,1.091,0,0,0,1.091-1.091m0,5.058a1.091,1.091,0,0,0-1.091-1.091h-4.426a1.091,1.091,0,0,0,0,2.183H139.9a1.091,1.091,0,0,0,1.091-1.091m0,5.058a1.091,1.091,0,0,0-1.091-1.091h-4.426a1.091,1.091,0,1,0,0,2.183H139.9a1.091,1.091,0,0,0,1.091-1.091M157.547,61.17a1.091,1.091,0,0,0-1.091-1.091H144.837a1.091,1.091,0,1,0,0,2.183h11.618a1.091,1.091,0,0,0,1.091-1.091m0,5.058a1.091,1.091,0,0,0-1.091-1.091H144.837a1.092,1.092,0,0,0,0,2.184h11.618a1.091,1.091,0,0,0,1.091-1.093m0,5.059a1.091,1.091,0,0,0-1.091-1.091H144.837a1.091,1.091,0,1,0,0,2.183h11.618a1.091,1.091,0,0,0,1.091-1.091m0,5.058a1.091,1.091,0,0,0-1.091-1.091H144.837a1.091,1.091,0,1,0,0,2.183h11.618a1.091,1.091,0,0,0,1.091-1.091m0,5.058a1.091,1.091,0,0,0-1.091-1.091H144.837a1.092,1.092,0,0,0,0,2.184h11.618a1.091,1.091,0,0,0,1.091-1.093m13.91,5.06a1.091,1.091,0,0,0-1.091-1.093H158.748a1.092,1.092,0,0,0,0,2.184h11.618a1.091,1.091,0,0,0,1.091-1.091m0,5.058a1.091,1.091,0,0,0-1.091-1.091H158.748a1.091,1.091,0,0,0,0,2.183h11.618a1.091,1.091,0,0,0,1.091-1.091m0,5.058a1.091,1.091,0,0,0-1.091-1.091H158.748a1.091,1.091,0,1,0,0,2.183h11.618a1.091,1.091,0,0,0,1.091-1.091m-8.8-35.407a1.264,1.264,0,1,0-1.264,1.265,1.264,1.264,0,0,0,1.264-1.265m3.794,0a1.264,1.264,0,1,0-1.264,1.265,1.265,1.265,0,0,0,1.264-1.265m3.794,0a1.264,1.264,0,1,0-1.264,1.265,1.265,1.265,0,0,0,1.264-1.265m3.794,0a1.264,1.264,0,1,0-1.265,1.265,1.265,1.265,0,0,0,1.265-1.265m3.794,0a1.264,1.264,0,1,0-1.265,1.265,1.265,1.265,0,0,0,1.265-1.265m3.794,0a1.265,1.265,0,1,0-1.265,1.265,1.265,1.265,0,0,0,1.265-1.265M162.659,71.287A1.264,1.264,0,1,0,161.4,72.55a1.264,1.264,0,0,0,1.264-1.264m3.794,0a1.264,1.264,0,1,0-1.264,1.264,1.265,1.265,0,0,0,1.264-1.264m3.794,0a1.264,1.264,0,1,0-1.264,1.264,1.265,1.265,0,0,0,1.264-1.264m3.794,0a1.264,1.264,0,1,0-1.265,1.264,1.265,1.265,0,0,0,1.265-1.264m3.794,0a1.264,1.264,0,1,0-1.265,1.264,1.265,1.265,0,0,0,1.265-1.264m3.794,0a1.265,1.265,0,1,0-1.265,1.264,1.265,1.265,0,0,0,1.265-1.264m-6.007,14.542a1.264,1.264,0,1,0-1.265,1.265,1.265,1.265,0,0,0,1.265-1.265m3.794,0a1.265,1.265,0,1,0-1.265,1.265,1.265,1.265,0,0,0,1.265-1.265m3.793,0a1.264,1.264,0,1,0-1.264,1.265,1.265,1.265,0,0,0,1.264-1.265m3.794,0a1.264,1.264,0,1,0-1.264,1.265A1.265,1.265,0,0,0,187,85.829m3.794,0a1.264,1.264,0,1,0-1.265,1.265,1.265,1.265,0,0,0,1.265-1.265m3.794,0a1.264,1.264,0,1,0-1.265,1.265,1.265,1.265,0,0,0,1.265-1.265M175.622,96.261a1.264,1.264,0,1,0-1.265,1.265,1.265,1.265,0,0,0,1.265-1.265m3.794,0a1.265,1.265,0,1,0-1.265,1.265,1.265,1.265,0,0,0,1.265-1.265m3.793,0a1.264,1.264,0,1,0-1.264,1.265,1.265,1.265,0,0,0,1.264-1.265m3.794,0a1.264,1.264,0,1,0-1.264,1.265A1.265,1.265,0,0,0,187,96.261m3.794,0a1.264,1.264,0,1,0-1.265,1.265,1.265,1.265,0,0,0,1.265-1.265m3.794,0a1.264,1.264,0,1,0-1.265,1.265,1.265,1.265,0,0,0,1.265-1.265" transform="translate(49.406 22.024)" fill="#fff"/><path d="M189.581,2.356h-4.426a1.092,1.092,0,0,1,0-2.184h4.426a1.092,1.092,0,0,1,0,2.184m1.091,3.965a1.092,1.092,0,0,0-1.091-1.091h-4.426a1.093,1.093,0,0,0,0,2.186h4.426a1.091,1.091,0,0,0,1.091-1.094m0,5.06a1.091,1.091,0,0,0-1.091-1.093h-4.426a1.092,1.092,0,0,0,0,2.184h4.426a1.091,1.091,0,0,0,1.091-1.091m0,5.058a1.091,1.091,0,0,0-1.091-1.093h-4.426a1.092,1.092,0,0,0,0,2.184h4.426a1.091,1.091,0,0,0,1.091-1.091m0,5.056a1.091,1.091,0,0,0-1.091-1.091h-4.426a1.093,1.093,0,0,0,0,2.186h4.426a1.091,1.091,0,0,0,1.091-1.094m0,5.062a1.091,1.091,0,0,0-1.091-1.094h-4.426a1.093,1.093,0,0,0,0,2.186h4.426a1.092,1.092,0,0,0,1.091-1.091m0,5.056a1.091,1.091,0,0,0-1.091-1.091h-4.426a1.091,1.091,0,1,0,0,2.183h4.426a1.09,1.09,0,0,0,1.091-1.091m0,5.058a1.09,1.09,0,0,0-1.091-1.09h-4.426a1.091,1.091,0,1,0,0,2.181h4.426a1.09,1.09,0,0,0,1.091-1.091M207.231,1.264A1.091,1.091,0,0,0,206.139.172H194.521a1.092,1.092,0,0,0,0,2.184h11.618a1.091,1.091,0,0,0,1.091-1.093m0,5.058a1.092,1.092,0,0,0-1.091-1.091H194.521a1.093,1.093,0,0,0,0,2.186h11.618a1.092,1.092,0,0,0,1.091-1.094m0,5.06a1.091,1.091,0,0,0-1.091-1.093H194.521a1.092,1.092,0,0,0,0,2.184h11.618a1.091,1.091,0,0,0,1.091-1.091m0,5.058a1.091,1.091,0,0,0-1.091-1.093H194.521a1.092,1.092,0,0,0,0,2.184h11.618a1.091,1.091,0,0,0,1.091-1.091m0,5.056a1.091,1.091,0,0,0-1.091-1.091H194.521a1.093,1.093,0,0,0,0,2.186h11.618a1.092,1.092,0,0,0,1.091-1.094m13.91,5.062a1.091,1.091,0,0,0-1.091-1.094H208.432a1.093,1.093,0,0,0,0,2.186H220.05a1.092,1.092,0,0,0,1.091-1.091m0,5.056a1.091,1.091,0,0,0-1.091-1.091H208.432a1.091,1.091,0,1,0,0,2.183H220.05a1.09,1.09,0,0,0,1.091-1.091m0,5.058a1.09,1.09,0,0,0-1.091-1.09H208.432a1.091,1.091,0,1,0,0,2.181H220.05a1.09,1.09,0,0,0,1.091-1.091m-8.8-35.407a1.265,1.265,0,1,0-1.265,1.266,1.265,1.265,0,0,0,1.265-1.266m3.793,0a1.264,1.264,0,1,0-1.264,1.266,1.264,1.264,0,0,0,1.264-1.266m3.794,0a1.264,1.264,0,1,0-1.264,1.266,1.264,1.264,0,0,0,1.264-1.266m3.794,0A1.264,1.264,0,1,0,222.46,2.53a1.265,1.265,0,0,0,1.265-1.266m3.794,0a1.264,1.264,0,1,0-1.265,1.266,1.265,1.265,0,0,0,1.265-1.266m3.794,0a1.265,1.265,0,1,0-1.265,1.266,1.265,1.265,0,0,0,1.265-1.266M212.344,11.382a1.265,1.265,0,1,0-1.265,1.264,1.265,1.265,0,0,0,1.265-1.264m3.793,0a1.264,1.264,0,1,0-1.264,1.264,1.265,1.265,0,0,0,1.264-1.264m3.794,0a1.264,1.264,0,1,0-1.264,1.264,1.265,1.265,0,0,0,1.264-1.264m3.794,0a1.264,1.264,0,1,0-1.265,1.264,1.265,1.265,0,0,0,1.265-1.264m3.794,0a1.264,1.264,0,1,0-1.265,1.264,1.265,1.265,0,0,0,1.265-1.264m3.794,0a1.265,1.265,0,1,0-1.265,1.264,1.265,1.265,0,0,0,1.265-1.264m-6.007,14.541a1.264,1.264,0,1,0-1.265,1.266,1.265,1.265,0,0,0,1.265-1.266m3.794,0a1.265,1.265,0,1,0-1.265,1.266,1.265,1.265,0,0,0,1.265-1.266m3.793,0a1.264,1.264,0,1,0-1.264,1.266,1.263,1.263,0,0,0,1.264-1.266m3.794,0a1.264,1.264,0,1,0-1.264,1.266,1.264,1.264,0,0,0,1.264-1.266m3.794,0a1.264,1.264,0,1,0-1.264,1.266,1.264,1.264,0,0,0,1.264-1.266m3.794,0a1.264,1.264,0,1,0-1.265,1.266,1.265,1.265,0,0,0,1.265-1.266M225.306,36.355a1.264,1.264,0,1,0-1.265,1.265,1.265,1.265,0,0,0,1.265-1.265m3.794,0a1.265,1.265,0,1,0-1.265,1.265,1.265,1.265,0,0,0,1.265-1.265m3.793,0a1.264,1.264,0,1,0-1.264,1.265,1.263,1.263,0,0,0,1.264-1.265m3.794,0a1.264,1.264,0,1,0-1.264,1.265,1.264,1.264,0,0,0,1.264-1.265m3.794,0a1.264,1.264,0,1,0-1.264,1.265,1.264,1.264,0,0,0,1.264-1.265m3.794,0a1.264,1.264,0,1,0-1.265,1.265,1.265,1.265,0,0,0,1.265-1.265" transform="translate(67.672)" fill="#fff"/><path d="M189.581,32.665h-4.426a1.091,1.091,0,1,1,0-2.183h4.426a1.091,1.091,0,0,1,0,2.183m1.091,3.966a1.091,1.091,0,0,0-1.091-1.091h-4.426a1.092,1.092,0,0,0,0,2.184h4.426a1.091,1.091,0,0,0,1.091-1.093m0,5.059a1.091,1.091,0,0,0-1.091-1.091h-4.426a1.091,1.091,0,1,0,0,2.183h4.426a1.091,1.091,0,0,0,1.091-1.091m0,5.058a1.091,1.091,0,0,0-1.091-1.091h-4.426a1.091,1.091,0,1,0,0,2.183h4.426a1.091,1.091,0,0,0,1.091-1.091m0,5.058a1.091,1.091,0,0,0-1.091-1.091h-4.426a1.092,1.092,0,0,0,0,2.184h4.426a1.091,1.091,0,0,0,1.091-1.093m0,5.06a1.091,1.091,0,0,0-1.091-1.093h-4.426a1.092,1.092,0,0,0,0,2.184h4.426a1.091,1.091,0,0,0,1.091-1.091m0,5.058a1.091,1.091,0,0,0-1.091-1.091h-4.426a1.091,1.091,0,1,0,0,2.183h4.426a1.091,1.091,0,0,0,1.091-1.091m0,5.058a1.091,1.091,0,0,0-1.091-1.091h-4.426a1.091,1.091,0,1,0,0,2.183h4.426a1.091,1.091,0,0,0,1.091-1.091m16.558-35.407a1.091,1.091,0,0,0-1.091-1.091H194.521a1.091,1.091,0,0,0,0,2.183h11.618a1.091,1.091,0,0,0,1.091-1.091m0,5.058a1.091,1.091,0,0,0-1.091-1.091H194.521a1.092,1.092,0,0,0,0,2.184h11.618a1.091,1.091,0,0,0,1.091-1.093m0,5.059a1.091,1.091,0,0,0-1.091-1.091H194.521a1.091,1.091,0,0,0,0,2.183h11.618a1.091,1.091,0,0,0,1.091-1.091m0,5.058a1.091,1.091,0,0,0-1.091-1.091H194.521a1.091,1.091,0,0,0,0,2.183h11.618a1.091,1.091,0,0,0,1.091-1.091m0,5.058a1.091,1.091,0,0,0-1.091-1.091H194.521a1.092,1.092,0,0,0,0,2.184h11.618a1.091,1.091,0,0,0,1.091-1.093m13.91,5.06a1.091,1.091,0,0,0-1.091-1.093H208.432a1.092,1.092,0,0,0,0,2.184H220.05a1.091,1.091,0,0,0,1.091-1.091m0,5.058a1.091,1.091,0,0,0-1.091-1.091H208.432a1.091,1.091,0,1,0,0,2.183H220.05a1.091,1.091,0,0,0,1.091-1.091m0,5.058a1.091,1.091,0,0,0-1.091-1.091H208.432a1.091,1.091,0,1,0,0,2.183H220.05a1.091,1.091,0,0,0,1.091-1.091m-8.8-35.407a1.265,1.265,0,1,0-1.265,1.265,1.265,1.265,0,0,0,1.265-1.265m3.793,0a1.264,1.264,0,1,0-1.264,1.265,1.265,1.265,0,0,0,1.264-1.265m3.794,0a1.264,1.264,0,1,0-1.264,1.265,1.265,1.265,0,0,0,1.264-1.265m3.794,0a1.264,1.264,0,1,0-1.265,1.265,1.265,1.265,0,0,0,1.265-1.265m3.794,0a1.264,1.264,0,1,0-1.265,1.265,1.265,1.265,0,0,0,1.265-1.265m3.794,0a1.265,1.265,0,1,0-1.265,1.265,1.265,1.265,0,0,0,1.265-1.265M212.344,41.691a1.265,1.265,0,1,0-1.265,1.264,1.265,1.265,0,0,0,1.265-1.264m3.793,0a1.264,1.264,0,1,0-1.264,1.264,1.265,1.265,0,0,0,1.264-1.264m3.794,0a1.264,1.264,0,1,0-1.264,1.264,1.265,1.265,0,0,0,1.264-1.264m3.794,0a1.264,1.264,0,1,0-1.265,1.264,1.265,1.265,0,0,0,1.265-1.264m3.794,0a1.264,1.264,0,1,0-1.265,1.264,1.265,1.265,0,0,0,1.265-1.264m3.794,0a1.265,1.265,0,1,0-1.265,1.264,1.265,1.265,0,0,0,1.265-1.264m-6.007,14.542a1.264,1.264,0,1,0-1.265,1.265,1.265,1.265,0,0,0,1.265-1.265m3.794,0a1.265,1.265,0,1,0-1.265,1.265,1.265,1.265,0,0,0,1.265-1.265m3.793,0a1.264,1.264,0,1,0-1.264,1.265,1.264,1.264,0,0,0,1.264-1.265m3.794,0a1.264,1.264,0,1,0-1.264,1.265,1.265,1.265,0,0,0,1.264-1.265m3.794,0a1.264,1.264,0,1,0-1.264,1.265,1.265,1.265,0,0,0,1.264-1.265m3.794,0a1.264,1.264,0,1,0-1.265,1.265,1.265,1.265,0,0,0,1.265-1.265M225.306,66.665a1.264,1.264,0,1,0-1.265,1.265,1.265,1.265,0,0,0,1.265-1.265m3.794,0a1.265,1.265,0,1,0-1.265,1.265,1.265,1.265,0,0,0,1.265-1.265m3.793,0a1.264,1.264,0,1,0-1.264,1.265,1.264,1.264,0,0,0,1.264-1.265m3.794,0a1.264,1.264,0,1,0-1.264,1.265,1.265,1.265,0,0,0,1.264-1.265m3.794,0a1.264,1.264,0,1,0-1.264,1.265,1.265,1.265,0,0,0,1.264-1.265m3.794,0a1.264,1.264,0,1,0-1.265,1.265,1.265,1.265,0,0,0,1.265-1.265" transform="translate(67.672 11.143)" fill="#fff"/><path d="M30.493,69.586H26.067a1.091,1.091,0,1,1,0-2.183h4.426a1.091,1.091,0,1,1,0,2.183m1.093,3.968a1.093,1.093,0,0,0-1.093-1.093H26.067a1.092,1.092,0,0,0,0,2.184h4.426a1.091,1.091,0,0,0,1.093-1.091m0,5.059a1.091,1.091,0,0,0-1.093-1.091H26.067a1.091,1.091,0,1,0,0,2.181h4.426a1.092,1.092,0,0,0,1.093-1.09m0,5.058a1.092,1.092,0,0,0-1.093-1.093H26.067a1.091,1.091,0,1,0,0,2.183h4.426a1.092,1.092,0,0,0,1.093-1.09m0,5.058a1.092,1.092,0,0,0-1.093-1.093H26.067a1.092,1.092,0,0,0,0,2.184h4.426a1.091,1.091,0,0,0,1.093-1.091m0,5.059A1.093,1.093,0,0,0,30.493,92.7H26.067a1.092,1.092,0,0,0,0,2.184h4.426a1.093,1.093,0,0,0,1.093-1.093m0,5.058a1.093,1.093,0,0,0-1.093-1.091H26.067a1.092,1.092,0,0,0,0,2.184h4.426a1.092,1.092,0,0,0,1.093-1.093m0,5.058a1.092,1.092,0,0,0-1.093-1.09H26.067a1.091,1.091,0,1,0,0,2.181h4.426a1.091,1.091,0,0,0,1.093-1.091M48.143,68.5A1.091,1.091,0,0,0,47.051,67.4H35.433a1.091,1.091,0,1,0,0,2.183H47.051a1.091,1.091,0,0,0,1.091-1.09m0,5.058a1.092,1.092,0,0,0-1.091-1.093H35.433a1.092,1.092,0,0,0,0,2.184H47.051a1.09,1.09,0,0,0,1.091-1.091m0,5.059a1.09,1.09,0,0,0-1.091-1.091H35.433a1.091,1.091,0,1,0,0,2.181H47.051a1.091,1.091,0,0,0,1.091-1.09m0,5.058a1.091,1.091,0,0,0-1.091-1.093H35.433a1.091,1.091,0,1,0,0,2.183H47.051a1.091,1.091,0,0,0,1.091-1.09m0,5.058a1.091,1.091,0,0,0-1.091-1.093H35.433a1.092,1.092,0,0,0,0,2.184H47.051a1.09,1.09,0,0,0,1.091-1.091m13.91,5.059A1.092,1.092,0,0,0,60.962,92.7H49.344a1.092,1.092,0,0,0,0,2.184H60.962a1.092,1.092,0,0,0,1.091-1.093m0,5.058a1.092,1.092,0,0,0-1.091-1.091H49.344a1.092,1.092,0,0,0,0,2.184H60.962a1.091,1.091,0,0,0,1.091-1.093m0,5.058a1.091,1.091,0,0,0-1.091-1.09H49.344a1.091,1.091,0,1,0,0,2.181H60.962a1.09,1.09,0,0,0,1.091-1.091M53.256,68.5a1.265,1.265,0,1,0-1.265,1.265A1.266,1.266,0,0,0,53.256,68.5m3.793,0a1.264,1.264,0,1,0-1.264,1.265A1.265,1.265,0,0,0,57.049,68.5m3.794,0a1.264,1.264,0,1,0-1.264,1.265A1.266,1.266,0,0,0,60.843,68.5m3.794,0a1.264,1.264,0,1,0-1.264,1.265A1.266,1.266,0,0,0,64.637,68.5m3.794,0a1.264,1.264,0,1,0-1.265,1.265A1.266,1.266,0,0,0,68.431,68.5m3.794,0a1.264,1.264,0,1,0-1.265,1.265A1.266,1.266,0,0,0,72.224,68.5M53.256,78.613a1.265,1.265,0,1,0-1.265,1.264,1.265,1.265,0,0,0,1.265-1.264m3.793,0a1.264,1.264,0,1,0-1.264,1.264,1.264,1.264,0,0,0,1.264-1.264m3.794,0a1.264,1.264,0,1,0-1.264,1.264,1.265,1.265,0,0,0,1.264-1.264m3.794,0a1.264,1.264,0,1,0-1.264,1.264,1.265,1.265,0,0,0,1.264-1.264m3.794,0a1.264,1.264,0,1,0-1.265,1.264,1.265,1.265,0,0,0,1.265-1.264m3.794,0a1.264,1.264,0,1,0-1.265,1.264,1.265,1.265,0,0,0,1.265-1.264M66.218,93.155a1.264,1.264,0,1,0-1.265,1.265,1.265,1.265,0,0,0,1.265-1.265m3.794,0a1.265,1.265,0,1,0-1.265,1.265,1.265,1.265,0,0,0,1.265-1.265m3.793,0A1.264,1.264,0,1,0,72.54,94.42,1.264,1.264,0,0,0,73.8,93.155m3.794,0a1.264,1.264,0,1,0-1.264,1.265A1.265,1.265,0,0,0,77.6,93.155m3.794,0a1.264,1.264,0,1,0-1.264,1.265,1.265,1.265,0,0,0,1.264-1.265m3.794,0a1.264,1.264,0,1,0-1.265,1.265,1.265,1.265,0,0,0,1.265-1.265M66.218,103.586a1.264,1.264,0,1,0-1.265,1.265,1.265,1.265,0,0,0,1.265-1.265m3.794,0a1.265,1.265,0,1,0-1.265,1.265,1.265,1.265,0,0,0,1.265-1.265m3.793,0a1.264,1.264,0,1,0-1.264,1.265,1.263,1.263,0,0,0,1.264-1.265m3.794,0a1.264,1.264,0,1,0-1.264,1.265,1.264,1.264,0,0,0,1.264-1.265m3.794,0a1.264,1.264,0,1,0-1.264,1.265,1.264,1.264,0,0,0,1.264-1.265m3.794,0a1.264,1.264,0,1,0-1.265,1.265,1.265,1.265,0,0,0,1.265-1.265" transform="translate(9.183 24.718)" fill="#fff"/><path d="M30.493,99.182H26.067a1.091,1.091,0,1,1,0-2.183h4.426a1.091,1.091,0,1,1,0,2.183m1.093,3.966a1.092,1.092,0,0,0-1.093-1.091H26.067a1.092,1.092,0,0,0,0,2.184h4.426a1.092,1.092,0,0,0,1.093-1.093m0,5.059a1.092,1.092,0,0,0-1.093-1.091H26.067a1.091,1.091,0,1,0,0,2.183h4.426a1.092,1.092,0,0,0,1.093-1.091m0,5.058a1.092,1.092,0,0,0-1.093-1.091H26.067a1.091,1.091,0,0,0,0,2.183h4.426a1.092,1.092,0,0,0,1.093-1.091m0,5.058a1.092,1.092,0,0,0-1.093-1.091H26.067a1.092,1.092,0,0,0,0,2.184h4.426a1.092,1.092,0,0,0,1.093-1.093m0,5.06a1.092,1.092,0,0,0-1.093-1.093H26.067a1.092,1.092,0,0,0,0,2.184h4.426a1.092,1.092,0,0,0,1.093-1.091m0,5.058a1.092,1.092,0,0,0-1.093-1.091H26.067a1.091,1.091,0,1,0,0,2.183h4.426a1.092,1.092,0,0,0,1.093-1.091m0,5.058a1.092,1.092,0,0,0-1.093-1.091H26.067a1.091,1.091,0,0,0,0,2.183h4.426a1.092,1.092,0,0,0,1.093-1.091M48.143,98.091A1.091,1.091,0,0,0,47.051,97H35.433a1.091,1.091,0,1,0,0,2.183H47.051a1.091,1.091,0,0,0,1.091-1.091m0,5.058a1.091,1.091,0,0,0-1.091-1.091H35.433a1.092,1.092,0,0,0,0,2.184H47.051a1.091,1.091,0,0,0,1.091-1.093m0,5.059a1.091,1.091,0,0,0-1.091-1.091H35.433a1.091,1.091,0,1,0,0,2.183H47.051a1.091,1.091,0,0,0,1.091-1.091m0,5.058a1.091,1.091,0,0,0-1.091-1.091H35.433a1.091,1.091,0,0,0,0,2.183H47.051a1.091,1.091,0,0,0,1.091-1.091m0,5.058a1.091,1.091,0,0,0-1.091-1.091H35.433a1.092,1.092,0,0,0,0,2.184H47.051a1.091,1.091,0,0,0,1.091-1.093m13.91,5.06a1.091,1.091,0,0,0-1.091-1.093H49.344a1.092,1.092,0,0,0,0,2.184H60.962a1.091,1.091,0,0,0,1.091-1.091m0,5.058a1.091,1.091,0,0,0-1.091-1.091H49.344a1.091,1.091,0,1,0,0,2.183H60.962a1.091,1.091,0,0,0,1.091-1.091m0,5.058a1.091,1.091,0,0,0-1.091-1.091H49.344a1.091,1.091,0,0,0,0,2.183H60.962a1.091,1.091,0,0,0,1.091-1.091m-8.8-35.407a1.265,1.265,0,1,0-1.265,1.265,1.265,1.265,0,0,0,1.265-1.265m3.793,0a1.264,1.264,0,1,0-1.264,1.265,1.264,1.264,0,0,0,1.264-1.265m3.794,0a1.264,1.264,0,1,0-1.264,1.265,1.265,1.265,0,0,0,1.264-1.265m3.794,0a1.264,1.264,0,1,0-1.264,1.265,1.265,1.265,0,0,0,1.264-1.265m3.794,0a1.264,1.264,0,1,0-1.265,1.265,1.265,1.265,0,0,0,1.265-1.265m3.794,0a1.264,1.264,0,1,0-1.265,1.265,1.265,1.265,0,0,0,1.265-1.265M53.256,108.208a1.265,1.265,0,1,0-1.265,1.265,1.265,1.265,0,0,0,1.265-1.265m3.793,0a1.264,1.264,0,1,0-1.264,1.265,1.264,1.264,0,0,0,1.264-1.265m3.794,0a1.264,1.264,0,1,0-1.264,1.265,1.265,1.265,0,0,0,1.264-1.265m3.794,0a1.264,1.264,0,1,0-1.264,1.265,1.265,1.265,0,0,0,1.264-1.265m3.794,0a1.264,1.264,0,1,0-1.265,1.265,1.265,1.265,0,0,0,1.265-1.265m3.794,0a1.264,1.264,0,1,0-1.265,1.265,1.265,1.265,0,0,0,1.265-1.265M66.218,122.75a1.264,1.264,0,1,0-1.265,1.265,1.265,1.265,0,0,0,1.265-1.265m3.794,0a1.265,1.265,0,1,0-1.265,1.265,1.265,1.265,0,0,0,1.265-1.265m3.793,0a1.264,1.264,0,1,0-1.264,1.265A1.264,1.264,0,0,0,73.8,122.75m3.794,0a1.264,1.264,0,1,0-1.264,1.265A1.265,1.265,0,0,0,77.6,122.75m3.794,0a1.264,1.264,0,1,0-1.264,1.265,1.265,1.265,0,0,0,1.264-1.265m3.794,0a1.264,1.264,0,1,0-1.265,1.265,1.265,1.265,0,0,0,1.265-1.265M66.218,133.182a1.264,1.264,0,1,0-1.265,1.265,1.265,1.265,0,0,0,1.265-1.265m3.794,0a1.265,1.265,0,1,0-1.265,1.265,1.265,1.265,0,0,0,1.265-1.265m3.793,0a1.264,1.264,0,1,0-1.264,1.265,1.264,1.264,0,0,0,1.264-1.265m3.794,0a1.264,1.264,0,1,0-1.264,1.265,1.265,1.265,0,0,0,1.264-1.265m3.794,0a1.264,1.264,0,1,0-1.264,1.265,1.265,1.265,0,0,0,1.264-1.265m3.794,0a1.264,1.264,0,1,0-1.265,1.265,1.265,1.265,0,0,0,1.265-1.265" transform="translate(9.183 35.599)" fill="#fff"/><path d="M30.493,129.492H26.067a1.091,1.091,0,1,1,0-2.183h4.426a1.091,1.091,0,1,1,0,2.183m1.093,3.966a1.092,1.092,0,0,0-1.093-1.091H26.067a1.092,1.092,0,0,0,0,2.184h4.426a1.092,1.092,0,0,0,1.093-1.093m0,5.059a1.092,1.092,0,0,0-1.093-1.091H26.067a1.091,1.091,0,1,0,0,2.183h4.426a1.092,1.092,0,0,0,1.093-1.091m0,5.058a1.092,1.092,0,0,0-1.093-1.091H26.067a1.091,1.091,0,1,0,0,2.183h4.426a1.092,1.092,0,0,0,1.093-1.091m0,5.058a1.092,1.092,0,0,0-1.093-1.091H26.067a1.092,1.092,0,0,0,0,2.184h4.426a1.092,1.092,0,0,0,1.093-1.093m0,5.06a1.092,1.092,0,0,0-1.093-1.093H26.067a1.092,1.092,0,0,0,0,2.184h4.426a1.092,1.092,0,0,0,1.093-1.091m0,5.058a1.092,1.092,0,0,0-1.093-1.091H26.067a1.091,1.091,0,0,0,0,2.183h4.426a1.092,1.092,0,0,0,1.093-1.091m0,5.058a1.092,1.092,0,0,0-1.093-1.091H26.067a1.091,1.091,0,0,0,0,2.183h4.426a1.092,1.092,0,0,0,1.093-1.091M48.143,128.4a1.091,1.091,0,0,0-1.091-1.091H35.433a1.091,1.091,0,1,0,0,2.183H47.051a1.091,1.091,0,0,0,1.091-1.091m0,5.058a1.091,1.091,0,0,0-1.091-1.091H35.433a1.092,1.092,0,0,0,0,2.184H47.051a1.091,1.091,0,0,0,1.091-1.093m0,5.059a1.091,1.091,0,0,0-1.091-1.091H35.433a1.091,1.091,0,1,0,0,2.183H47.051a1.091,1.091,0,0,0,1.091-1.091m0,5.058a1.091,1.091,0,0,0-1.091-1.091H35.433a1.091,1.091,0,1,0,0,2.183H47.051a1.091,1.091,0,0,0,1.091-1.091m0,5.058a1.091,1.091,0,0,0-1.091-1.091H35.433a1.092,1.092,0,0,0,0,2.184H47.051a1.091,1.091,0,0,0,1.091-1.093m13.91,5.06a1.091,1.091,0,0,0-1.091-1.093H49.344a1.092,1.092,0,0,0,0,2.184H60.962a1.091,1.091,0,0,0,1.091-1.091m0,5.058a1.091,1.091,0,0,0-1.091-1.091H49.344a1.091,1.091,0,0,0,0,2.183H60.962a1.091,1.091,0,0,0,1.091-1.091m0,5.058a1.091,1.091,0,0,0-1.091-1.091H49.344a1.091,1.091,0,0,0,0,2.183H60.962a1.091,1.091,0,0,0,1.091-1.091m-8.8-35.407a1.265,1.265,0,1,0-1.265,1.265,1.265,1.265,0,0,0,1.265-1.265m3.793,0a1.264,1.264,0,1,0-1.264,1.265,1.264,1.264,0,0,0,1.264-1.265m3.794,0a1.264,1.264,0,1,0-1.264,1.265,1.265,1.265,0,0,0,1.264-1.265m3.794,0a1.264,1.264,0,1,0-1.264,1.265,1.265,1.265,0,0,0,1.264-1.265m3.794,0a1.264,1.264,0,1,0-1.265,1.265,1.265,1.265,0,0,0,1.265-1.265m3.794,0a1.264,1.264,0,1,0-1.265,1.265,1.265,1.265,0,0,0,1.265-1.265M53.256,138.518a1.265,1.265,0,1,0-1.265,1.264,1.265,1.265,0,0,0,1.265-1.264m3.793,0a1.264,1.264,0,1,0-1.264,1.264,1.264,1.264,0,0,0,1.264-1.264m3.794,0a1.264,1.264,0,1,0-1.264,1.264,1.265,1.265,0,0,0,1.264-1.264m3.794,0a1.264,1.264,0,1,0-1.264,1.264,1.265,1.265,0,0,0,1.264-1.264m3.794,0a1.264,1.264,0,1,0-1.265,1.264,1.265,1.265,0,0,0,1.265-1.264m3.794,0a1.264,1.264,0,1,0-1.265,1.264,1.265,1.265,0,0,0,1.265-1.264M66.218,153.06a1.264,1.264,0,1,0-1.265,1.265,1.265,1.265,0,0,0,1.265-1.265m3.794,0a1.265,1.265,0,1,0-1.265,1.265,1.265,1.265,0,0,0,1.265-1.265m3.793,0a1.264,1.264,0,1,0-1.264,1.265A1.264,1.264,0,0,0,73.8,153.06m3.794,0a1.264,1.264,0,1,0-1.264,1.265A1.265,1.265,0,0,0,77.6,153.06m3.794,0a1.264,1.264,0,1,0-1.264,1.265,1.265,1.265,0,0,0,1.264-1.265m3.794,0a1.264,1.264,0,1,0-1.265,1.265,1.265,1.265,0,0,0,1.265-1.265M66.218,163.492a1.264,1.264,0,1,0-1.265,1.265,1.265,1.265,0,0,0,1.265-1.265m3.794,0a1.265,1.265,0,1,0-1.265,1.265,1.265,1.265,0,0,0,1.265-1.265m3.793,0a1.264,1.264,0,1,0-1.264,1.265,1.264,1.264,0,0,0,1.264-1.265m3.794,0a1.264,1.264,0,1,0-1.264,1.265,1.265,1.265,0,0,0,1.264-1.265m3.794,0a1.264,1.264,0,1,0-1.264,1.265,1.265,1.265,0,0,0,1.264-1.265m3.794,0a1.264,1.264,0,1,0-1.265,1.265,1.265,1.265,0,0,0,1.265-1.265" transform="translate(9.183 46.742)" fill="#fff"/><path d="M80.177,69.586H75.751a1.091,1.091,0,0,1,0-2.183h4.426a1.091,1.091,0,1,1,0,2.183m1.093,3.968a1.092,1.092,0,0,0-1.093-1.093H75.751a1.092,1.092,0,0,0,0,2.184h4.426a1.09,1.09,0,0,0,1.093-1.091m0,5.059a1.09,1.09,0,0,0-1.093-1.091H75.751a1.091,1.091,0,1,0,0,2.181h4.426a1.091,1.091,0,0,0,1.093-1.09m0,5.058a1.091,1.091,0,0,0-1.093-1.093H75.751a1.091,1.091,0,1,0,0,2.183h4.426a1.091,1.091,0,0,0,1.093-1.09m0,5.058a1.091,1.091,0,0,0-1.093-1.093H75.751a1.092,1.092,0,0,0,0,2.184h4.426a1.09,1.09,0,0,0,1.093-1.091m0,5.059A1.092,1.092,0,0,0,80.177,92.7H75.751a1.092,1.092,0,0,0,0,2.184h4.426a1.092,1.092,0,0,0,1.093-1.093m0,5.058a1.092,1.092,0,0,0-1.093-1.091H75.751a1.092,1.092,0,0,0,0,2.184h4.426a1.091,1.091,0,0,0,1.093-1.093m0,5.058a1.091,1.091,0,0,0-1.093-1.09H75.751a1.091,1.091,0,1,0,0,2.181h4.426A1.09,1.09,0,0,0,81.27,103.9M97.828,68.5A1.091,1.091,0,0,0,96.735,67.4H85.118a1.091,1.091,0,1,0,0,2.183H96.735a1.091,1.091,0,0,0,1.093-1.09m0,5.058a1.092,1.092,0,0,0-1.093-1.093H85.118a1.092,1.092,0,1,0,0,2.184H96.735a1.09,1.09,0,0,0,1.093-1.091m0,5.059a1.09,1.09,0,0,0-1.093-1.091H85.118a1.091,1.091,0,1,0,0,2.181H96.735a1.091,1.091,0,0,0,1.093-1.09m0,5.058a1.091,1.091,0,0,0-1.093-1.093H85.118a1.091,1.091,0,1,0,0,2.183H96.735a1.091,1.091,0,0,0,1.093-1.09m0,5.058a1.091,1.091,0,0,0-1.093-1.093H85.118a1.092,1.092,0,1,0,0,2.184H96.735a1.09,1.09,0,0,0,1.093-1.091m13.91,5.059a1.093,1.093,0,0,0-1.093-1.091H99.029a1.092,1.092,0,1,0,0,2.184h11.617a1.093,1.093,0,0,0,1.093-1.093m0,5.058a1.093,1.093,0,0,0-1.093-1.091H99.029a1.092,1.092,0,1,0,0,2.184h11.617a1.092,1.092,0,0,0,1.093-1.093m0,5.058a1.092,1.092,0,0,0-1.093-1.09H99.029a1.091,1.091,0,1,0,0,2.181h11.617a1.091,1.091,0,0,0,1.093-1.091m-8.8-35.406a1.265,1.265,0,1,0-1.266,1.265,1.267,1.267,0,0,0,1.266-1.265m3.791,0a1.264,1.264,0,1,0-1.262,1.265,1.265,1.265,0,0,0,1.262-1.265m3.794,0a1.264,1.264,0,1,0-1.262,1.265,1.265,1.265,0,0,0,1.262-1.265m3.8,0a1.264,1.264,0,1,0-1.265,1.265,1.267,1.267,0,0,0,1.265-1.265m3.793,0a1.264,1.264,0,1,0-1.265,1.265,1.265,1.265,0,0,0,1.265-1.265m3.794,0a1.264,1.264,0,1,0-1.264,1.265,1.266,1.266,0,0,0,1.264-1.265M102.942,78.613a1.265,1.265,0,1,0-1.266,1.264,1.266,1.266,0,0,0,1.266-1.264m3.791,0a1.264,1.264,0,1,0-1.262,1.264,1.263,1.263,0,0,0,1.262-1.264m3.794,0a1.264,1.264,0,1,0-1.262,1.264,1.264,1.264,0,0,0,1.262-1.264m3.8,0a1.264,1.264,0,1,0-1.265,1.264,1.266,1.266,0,0,0,1.265-1.264m3.793,0a1.264,1.264,0,1,0-1.265,1.264,1.264,1.264,0,0,0,1.265-1.264m3.794,0a1.264,1.264,0,1,0-1.264,1.264,1.265,1.265,0,0,0,1.264-1.264M115.9,93.155a1.264,1.264,0,1,0-1.265,1.265,1.265,1.265,0,0,0,1.265-1.265m3.8,0a1.265,1.265,0,1,0-1.266,1.265,1.266,1.266,0,0,0,1.266-1.265m3.793,0a1.265,1.265,0,1,0-1.265,1.265,1.264,1.264,0,0,0,1.265-1.265m3.793,0a1.264,1.264,0,1,0-1.262,1.265,1.265,1.265,0,0,0,1.262-1.265m3.794,0a1.264,1.264,0,1,0-1.264,1.265,1.265,1.265,0,0,0,1.264-1.265m3.8,0A1.265,1.265,0,1,0,133.6,94.42a1.265,1.265,0,0,0,1.266-1.265M115.9,103.586a1.264,1.264,0,1,0-1.265,1.265,1.265,1.265,0,0,0,1.265-1.265m3.8,0a1.265,1.265,0,1,0-1.266,1.265,1.266,1.266,0,0,0,1.266-1.265m3.793,0a1.265,1.265,0,1,0-1.265,1.265,1.264,1.264,0,0,0,1.265-1.265m3.793,0a1.264,1.264,0,1,0-1.262,1.265,1.264,1.264,0,0,0,1.262-1.265m3.794,0a1.264,1.264,0,1,0-1.264,1.265,1.264,1.264,0,0,0,1.264-1.265m3.8,0a1.265,1.265,0,1,0-1.266,1.265,1.265,1.265,0,0,0,1.266-1.265" transform="translate(27.449 24.718)" fill="#fff"/><path d="M80.177,99.9H75.751a1.091,1.091,0,0,1,0-2.183h4.426a1.091,1.091,0,1,1,0,2.183m1.093,3.966a1.091,1.091,0,0,0-1.093-1.091H75.751a1.092,1.092,0,0,0,0,2.184h4.426a1.092,1.092,0,0,0,1.093-1.093m0,5.059a1.091,1.091,0,0,0-1.093-1.091H75.751a1.091,1.091,0,1,0,0,2.183h4.426a1.091,1.091,0,0,0,1.093-1.091m0,5.058a1.091,1.091,0,0,0-1.093-1.091H75.751a1.091,1.091,0,0,0,0,2.183h4.426a1.091,1.091,0,0,0,1.093-1.091m0,5.058a1.091,1.091,0,0,0-1.093-1.091H75.751a1.092,1.092,0,0,0,0,2.184h4.426a1.091,1.091,0,0,0,1.093-1.093m0,5.06A1.091,1.091,0,0,0,80.177,123H75.751a1.092,1.092,0,0,0,0,2.184h4.426A1.091,1.091,0,0,0,81.27,124.1m0,5.058a1.091,1.091,0,0,0-1.093-1.091H75.751a1.091,1.091,0,1,0,0,2.183h4.426a1.091,1.091,0,0,0,1.093-1.091m0,5.058a1.091,1.091,0,0,0-1.093-1.091H75.751a1.091,1.091,0,0,0,0,2.183h4.426a1.091,1.091,0,0,0,1.093-1.091M97.828,98.805a1.091,1.091,0,0,0-1.093-1.091H85.118a1.091,1.091,0,1,0,0,2.183H96.735a1.091,1.091,0,0,0,1.093-1.091m0,5.058a1.091,1.091,0,0,0-1.093-1.091H85.118a1.092,1.092,0,1,0,0,2.184H96.735a1.092,1.092,0,0,0,1.093-1.093m0,5.059a1.091,1.091,0,0,0-1.093-1.091H85.118a1.091,1.091,0,1,0,0,2.183H96.735a1.091,1.091,0,0,0,1.093-1.091m0,5.058a1.091,1.091,0,0,0-1.093-1.091H85.118a1.091,1.091,0,1,0,0,2.183H96.735a1.091,1.091,0,0,0,1.093-1.091m0,5.058a1.091,1.091,0,0,0-1.093-1.091H85.118a1.092,1.092,0,1,0,0,2.184H96.735a1.091,1.091,0,0,0,1.093-1.093m13.91,5.06A1.092,1.092,0,0,0,110.646,123H99.029a1.092,1.092,0,1,0,0,2.184h11.617a1.092,1.092,0,0,0,1.093-1.091m0,5.058a1.092,1.092,0,0,0-1.093-1.091H99.029a1.091,1.091,0,1,0,0,2.183h11.617a1.092,1.092,0,0,0,1.093-1.091m0,5.058a1.092,1.092,0,0,0-1.093-1.091H99.029a1.091,1.091,0,1,0,0,2.183h11.617a1.092,1.092,0,0,0,1.093-1.091m-8.8-35.407a1.265,1.265,0,1,0-1.266,1.265,1.266,1.266,0,0,0,1.266-1.265m3.791,0a1.264,1.264,0,1,0-1.262,1.265,1.263,1.263,0,0,0,1.262-1.265m3.794,0a1.264,1.264,0,1,0-1.262,1.265,1.264,1.264,0,0,0,1.262-1.265m3.8,0a1.264,1.264,0,1,0-1.265,1.265,1.266,1.266,0,0,0,1.265-1.265m3.793,0a1.264,1.264,0,1,0-1.265,1.265,1.264,1.264,0,0,0,1.265-1.265m3.794,0a1.264,1.264,0,1,0-1.264,1.265,1.265,1.265,0,0,0,1.264-1.265m-18.967,10.117a1.265,1.265,0,1,0-1.266,1.264,1.266,1.266,0,0,0,1.266-1.264m3.791,0a1.264,1.264,0,1,0-1.262,1.264,1.263,1.263,0,0,0,1.262-1.264m3.794,0a1.264,1.264,0,1,0-1.262,1.264,1.264,1.264,0,0,0,1.262-1.264m3.8,0a1.264,1.264,0,1,0-1.265,1.264,1.266,1.266,0,0,0,1.265-1.264m3.793,0a1.264,1.264,0,1,0-1.265,1.264,1.264,1.264,0,0,0,1.265-1.264m3.794,0a1.264,1.264,0,1,0-1.264,1.264,1.265,1.265,0,0,0,1.264-1.264M115.9,123.464a1.264,1.264,0,1,0-1.265,1.264,1.265,1.265,0,0,0,1.265-1.264m3.8,0a1.265,1.265,0,1,0-1.266,1.264,1.266,1.266,0,0,0,1.266-1.264m3.793,0a1.265,1.265,0,1,0-1.265,1.264,1.264,1.264,0,0,0,1.265-1.264m3.793,0a1.264,1.264,0,1,0-1.262,1.264,1.264,1.264,0,0,0,1.262-1.264m3.794,0a1.264,1.264,0,1,0-1.264,1.264,1.265,1.265,0,0,0,1.264-1.264m3.8,0a1.265,1.265,0,1,0-1.266,1.264,1.265,1.265,0,0,0,1.266-1.264M115.9,133.9a1.264,1.264,0,1,0-1.265,1.265A1.265,1.265,0,0,0,115.9,133.9m3.8,0a1.265,1.265,0,1,0-1.266,1.265A1.266,1.266,0,0,0,119.7,133.9m3.793,0a1.265,1.265,0,1,0-1.265,1.265,1.264,1.264,0,0,0,1.265-1.265m3.793,0a1.264,1.264,0,1,0-1.262,1.265,1.264,1.264,0,0,0,1.262-1.265m3.794,0a1.264,1.264,0,1,0-1.264,1.265,1.265,1.265,0,0,0,1.264-1.265m3.8,0a1.265,1.265,0,1,0-1.266,1.265,1.265,1.265,0,0,0,1.266-1.265" transform="translate(27.449 35.861)" fill="#fff"/><path d="M388.762,236.6c-7.325,9.156-10.9,14.251-12.442,16.573a175.513,175.513,0,0,1,8.348-29.536,86.974,86.974,0,0,0,5.093-23.085l-.681.365-.637-1.21c.25-.133,25.192-13.372,32.249-25.858l1.191.673c-6.376,11.279-26.068,22.691-31.456,25.665,5.12-.488,21.089-2.923,30.59-14.66,11.424-14.111,9.408-31.583,9.408-31.583s-21.505,14.784-30.24,26.208A82,82,0,0,0,390,197.115a118.435,118.435,0,0,0-2.117-27.774c7.176-5.646,33.6-27.382,36.495-43.624,3.36-18.816-1.343-51.072-1.343-51.072a165.631,165.631,0,0,1-9.408,19.489c-6.048,10.751-24.864,27.551-28.224,45.695a79.119,79.119,0,0,0-1.323,13.763,268.12,268.12,0,0,0-10.859-29.753,56.386,56.386,0,0,1-2.689-8.006l-.588-.35c.123-.205,12.234-20.641,12.234-26.509h1.368c0,5.5-9.243,21.751-11.793,26.132,4.227-2.547,11.109-7.756,13.7-15.854C389.31,87.222,383.6,76.4,383.6,76.4s-10.223,15-13.012,24.61a57.321,57.321,0,0,0-2.331,13.478c-1.953-4.977-4.956-11.736-8.4-16.323C353.817,90.1,349.785,78,349.785,78s-7.392,12.768-2.016,26.208c4.416,11.037,16.982,15.274,21.335,16.436.487,1.466,1.018,2.891,1.6,4.259,5.289,12.443,10.6,26.563,13.768,41.357-3.139-4.174-9.046-11.512-14.639-15.619-8.127-5.964-15.491-16.372-15.491-16.372s-3.374,14.363,5.668,25.668c7.387,9.234,20.545,9.69,25.116,9.548,3.107,16.272,3.455,33.263-1.811,49.677-.341-3.188-2.257-11.86-12.807-21.562-13.32-12.249-39.987-51.421-39.987-51.421s2.129,46.24,14.9,61.443c11.7,13.93,33.814,13.114,37.442,12.881-.246.725-.488,1.45-.758,2.172-8.421,22.6-10.193,38.458-10.4,46.845H355.833v73.249h43.68V269.524H374.48a105.4,105.4,0,0,1,1.476-14.256c-.269.081-.432.127-.451.133l-.364-1.32c.274-.075,27.64-7.789,46.771-27.467l.981.953c-15.442,15.884-36.14,24.061-44.085,26.777,7.9-.981,27.2-3.883,36.164-9.684,11.423-7.392,21.5-29.567,21.5-29.567s-36.961,8.064-47.712,21.5M367.978,117.582a34.258,34.258,0,0,1-17.533-23.464l1.342-.268a32.781,32.781,0,0,0,16.758,22.487Zm19.337,52.191-.308.468-.52-.211c-.758-.308-18.64-7.667-25.912-18.3l1.13-.773c6.365,9.306,21.762,16.282,24.781,17.584,2.314-3.549,16.845-26.092,21.907-40.261l1.287.46c-5.534,15.491-22.2,40.778-22.365,41.03m-6.362,50.162c-.213-.079-21.521-8.1-31-26.505l1.216-.625c9.24,17.934,30.049,25.771,30.259,25.849Z" transform="translate(121.517 27.443)" fill="#4a494d"/><path d="M187.6,135.765s-38.992,8.272-71.486,26.586-57.9,33.084-57.9,40.174-13,119.339-13,119.339H340.612s-28.949-62.033-33.676-88.619-10.043-43.717-25.4-60.851S221.271,133.4,187.6,135.765" transform="translate(16.624 49.85)" fill="#fff"/></g><g transform="translate(61.841 185.439)"><g clip-path="url(#d)"><path d="M73.073,243.194c4.374-3.125,13.121,20.62,15.621,15s-15.621-33.743-16.871-43.74,10.623-11.248,24.37-20.62,26.244-16.873,26.244-4.375,5.624,35.618,10,26.245,13.746-21.247,14.37-5,0,32.493,1.875,32.493,18.748-17.5,23.12-26.244-5-31.244-5-41.242,8.748-23.745,8.748-23.745l.559-14.146c-13.988,3.823-38.419,11.551-60,23.714-32.493,18.316-57.9,33.085-57.9,40.175s-13,119.339-13,119.339H61.379c3.01-27.826,8.6-75.642,11.695-77.851" transform="translate(-45.217 -134.77)" fill="#c6ff00"/></g></g><g transform="translate(61.841 188.488)"><g clip-path="url(#e)"><path d="M0,0H130.959V183.226H0Z" fill="#4a494d"/></g></g><g transform="translate(61.841 185.439)"><g clip-path="url(#d)"><path d="M203.259,157.107s20.518,10.03,28.268,20.062c0,0-7.751-15.5-26.9-24.622Z" transform="translate(12.888 -129.354)" fill="#1d1c21"/></g></g><g clip-path="url(#b)"><path d="M187.6,135.765s-38.992,8.272-71.486,26.586-57.9,33.084-57.9,40.174-13,119.339-13,119.339H340.612s-28.949-62.033-33.676-88.619-10.043-43.717-25.4-60.851S221.271,133.4,187.6,135.765Z" transform="translate(16.624 49.85)" fill="none" stroke="#263238" stroke-linecap="round" stroke-linejoin="round" stroke-width="1"/><path d="M146.516,138.9s-17.133,9.453-18.314,30.722,0,43.128-1.182,54.943-9.453,21.268-2.954,20.678,21.268-24.223,26.586-24.223,7.09,11.226,9.452,14.771,10.661,5.03,10.661,5.03,7.655-9.166,7.655-12.12-2.363-13,4.134-11.817,20.678,23.632,21.268,16.543-6.5-17.725-6.5-34.857-8.272-37.219-20.087-49.625-18.614-10.96-30.722-10.044" transform="translate(44.707 50.853)" fill="#fff"/></g><g transform="translate(166.309 189.171)"><g clip-path="url(#h)"><path d="M147.938,138.658l-1.466.115s-17.133,9.452-18.314,30.72,0,43.128-1.182,54.944c-.759,7.6-4.446,14.214-5.256,17.815,4.341-3.188,18.072-17.844,21.955-25.612,4.375-8.749-5-31.244-5-41.242s8.749-23.745,8.749-23.745Z" transform="translate(-121.558 -138.193)" fill="#c6ff00"/><path d="M147.938,138.658l-1.466.115s-17.133,9.452-18.314,30.72,0,43.128-1.182,54.944c-.759,7.6-4.446,14.214-5.256,17.815,4.341-3.188,18.072-17.844,21.955-25.612,4.375-8.749-5-31.244-5-41.242s8.749-23.745,8.749-23.745Z" transform="translate(-121.558 -138.193)" fill="#4a494d"/></g></g><g clip-path="url(#b)"><path d="M146.516,138.9s-17.133,9.453-18.314,30.722,0,43.128-1.182,54.943-9.453,21.268-2.954,20.678,21.268-24.223,26.586-24.223,7.09,11.226,9.452,14.771,10.661,5.03,10.661,5.03,7.655-9.166,7.655-12.12-2.363-13,4.134-11.817,20.678,23.632,21.268,16.543-6.5-17.725-6.5-34.857-8.272-37.219-20.087-49.625S158.624,137.982,146.516,138.9Z" transform="translate(44.707 50.853)" fill="none" stroke="#263238" stroke-linecap="round" stroke-linejoin="round" stroke-width="1"/><path d="M145.325,138.857a91.187,91.187,0,0,0-7.084,34.135c0,18.678,9.661,38,13.525,47.017s12.882,20.611,12.882,20.611S164,216.789,169.8,205.2s10.949-19.966,10.949-19.966-7.084-7.084-17.39-23.187-18.034-23.186-18.034-23.186" transform="translate(50.825 51.052)" fill="#fff"/></g><g transform="translate(189.065 189.909)"><g clip-path="url(#j)"><path d="M176.27,192.961l-2.429-15.925c-2.832-3.669-6.4-8.611-10.482-14.992-10.305-16.1-18.034-23.187-18.034-23.187a91.2,91.2,0,0,0-7.084,34.135,76.859,76.859,0,0,0,3.523,21.571l34.23-1.105c.094-.168.185-.332.276-.5" transform="translate(-138.24 -138.857)" fill="#c6ff00"/><path d="M176.27,192.961l-2.429-15.925c-2.832-3.669-6.4-8.611-10.482-14.992-10.305-16.1-18.034-23.187-18.034-23.187a91.2,91.2,0,0,0-7.084,34.135,76.859,76.859,0,0,0,3.523,21.571l34.23-1.105c.094-.168.185-.332.276-.5" transform="translate(-138.24 -138.857)" fill="#dbdbdb"/><path d="M163.359,162.044c-10.305-16.1-18.034-23.186-18.034-23.186a91.186,91.186,0,0,0-7.084,34.135,65.243,65.243,0,0,0,1.1,11.477l28.823.9,7.05-6.58a200.692,200.692,0,0,1-11.856-16.748" transform="translate(-138.24 -138.857)" fill="#1d1c21"/></g></g><g clip-path="url(#b)"><path d="M145.325,138.857a91.187,91.187,0,0,0-7.084,34.135c0,18.678,9.661,38,13.525,47.017s12.882,20.611,12.882,20.611S164,216.789,169.8,205.2s10.949-19.966,10.949-19.966-7.084-7.084-17.39-23.187S145.325,138.857,145.325,138.857Z" transform="translate(50.825 51.052)" fill="none" stroke="#263238" stroke-linecap="round" stroke-linejoin="round" stroke-width="1"/><path d="M111.74,179.462s13-31.312,34.265-38.992" transform="translate(41.082 51.645)" fill="none" stroke="#263238" stroke-linecap="round" stroke-linejoin="round" stroke-width="1"/><path d="M70.7,187.987s17.723,28.949,20.087,53.761" transform="translate(25.994 69.115)" fill="none" stroke="#263238" stroke-linecap="round" stroke-linejoin="round" stroke-width="1"/><path d="M86.686,207.425s5.908,37.219,5.908,56.125a158.657,158.657,0,0,0,2.954,31.9" transform="translate(31.871 76.261)" fill="none" stroke="#263238" stroke-linecap="round" stroke-linejoin="round" stroke-width="1"/><path d="M90.574,254.326A186.813,186.813,0,0,0,95.3,210.017" transform="translate(33.3 77.214)" fill="none" stroke="#263238" stroke-linecap="round" stroke-linejoin="round" stroke-width="1"/><path d="M208.934,207.857s1.772,21.268,5.908,47.263,6.5,38.992,6.5,38.992" transform="translate(76.816 76.42)" fill="none" stroke="#263238" stroke-linecap="round" stroke-linejoin="round" stroke-width="1"/><path d="M143.574,245.8s-12.5,25.471-14.356,29.176-4.631,10.188-4.631,10.188h22.229s12.5-8.336,13.894-8.8,9.262,0,14.82-2.315,11.114-8.336,16.672-9.725,12.967-3.705,15.282-3.705,10.188,2.315,15.282,2.315,11.579-5.095,7.41-7.41-7.41-.926-12.967-3.7-7.41-3.7-12.967-2.779-10.189-2.315-23.619-5.093-28.713-3.7-37.048,1.852" transform="translate(45.805 88.876)" fill="#fff"/><path d="M143.574,245.8s-12.5,25.471-14.356,29.176-4.631,10.188-4.631,10.188h22.229s12.5-8.336,13.894-8.8,9.262,0,14.82-2.315,11.114-8.336,16.672-9.725,12.967-3.705,15.282-3.705,10.188,2.315,15.282,2.315,11.579-5.095,7.41-7.41-7.41-.926-12.967-3.7-7.41-3.7-12.967-2.779-10.189-2.315-23.619-5.093S151.91,240.242,143.574,245.8Z" transform="translate(45.805 88.876)" fill="none" stroke="#263238" stroke-linecap="round" stroke-linejoin="round" stroke-width="1"/><path d="M166.834,235.387s7.284-6.212,13.281-3.214,3.214,22.279,4.713,29.991,3.214,11.782-.643,12.21-5.356-2.571-8.354-9.426-9-29.562-9-29.562" transform="translate(61.338 85.059)" fill="#fff"/><path d="M166.834,235.387s7.284-6.212,13.281-3.214,3.214,22.279,4.713,29.991,3.214,11.782-.643,12.21-5.356-2.571-8.354-9.426S166.834,235.387,166.834,235.387Z" transform="translate(61.338 85.059)" fill="none" stroke="#263238" stroke-linecap="round" stroke-linejoin="round" stroke-width="1"/><path d="M153.833,239.426s9.639-8.568,13.924-8.568,7.712,15.21,10.925,21.85,7.927,14.567,6,16.709-6,3-9.426-.641S164.33,249.067,162.188,246.5s-8.355-7.069-8.355-7.069" transform="translate(56.558 84.876)" fill="#fff"/><path d="M153.833,239.426s9.639-8.568,13.924-8.568,7.712,15.21,10.925,21.85,7.927,14.567,6,16.709-6,3-9.426-.641S164.33,249.067,162.188,246.5,153.833,239.426,153.833,239.426Z" transform="translate(56.558 84.876)" fill="none" stroke="#263238" stroke-linecap="round" stroke-linejoin="round" stroke-width="1"/><path d="M146.628,240.121s.643-3,9.854-3,17.138,12.853,22.707,15.853,3.855,4.285-.215,6.212-6.64-.213-14.78-4.713-17.566-14.352-17.566-14.352" transform="translate(53.909 87.179)" fill="#fff"/><path d="M146.628,240.121s.643-3,9.854-3,17.138,12.853,22.707,15.853,3.855,4.285-.215,6.212-6.64-.213-14.78-4.713S146.628,240.121,146.628,240.121Z" transform="translate(53.909 87.179)" fill="none" stroke="#263238" stroke-linecap="round" stroke-linejoin="round" stroke-width="1"/><path d="M141.015,261.264l6.484-10.651s5.093.926,8.336,3.7,9.262,8.336,16.672,8.336,9.725-2.315,6.946-4.631-11.115-6.484-17.135-10.653-10.651-11.114-15.282-9.724-7.872,10.188-12.967,21.765" transform="translate(49.291 87.305)" fill="#fff"/><path d="M141.015,261.264l6.484-10.651s5.093.926,8.336,3.7,9.262,8.336,16.672,8.336,9.725-2.315,6.946-4.631-11.115-6.484-17.135-10.653-10.651-11.114-15.282-9.724-7.872,10.188-12.967,21.765" transform="translate(49.291 87.305)" fill="none" stroke="#263238" stroke-linecap="round" stroke-linejoin="round" stroke-width="1"/><path d="M243.877,115.616s-1.789,26.47-4.65,35.77-6.8,37.917-15.381,50.436-19.674,23.25-32.193,23.965-29.332-21.461-38.989-35.77-10.732-28.617-13.95-42.567-3.935-30.046,1.072-42.566,30.047-27.9,51.152-26.113,47.574,12.878,52.939,21.1a14.365,14.365,0,0,1,0,15.739" transform="translate(50.061 28.909)" fill="#fff"/></g><g transform="translate(186.224 107.539)"><g clip-path="url(#l)"><path d="M139.786,104.885c-5.008,12.52-4.292,28.615-1.074,42.567s4.293,28.257,13.951,42.566,26.47,36.485,38.989,35.77a28.954,28.954,0,0,0,14.315-5.193c-2.043.2-4.174.41-6.365.62-13.123,1.25-19.371-7.5-27.5-24.37s-3.124-26.869-6.247-29.994-3.125-25.619-3.125-25.619,2.5-10,3.749-13.748,14.373-8.748,14.373-8.748,0,9.373,9.007,8.685,15.363-10.56,15.363-10.56l-1.257-36a97.183,97.183,0,0,0-13.032-2.083c-21.1-1.788-46.143,13.593-51.152,26.113" transform="translate(-136.162 -78.63)" fill="#c6ff00"/><path d="M139.786,104.885c-5.008,12.52-4.292,28.615-1.074,42.567s4.293,28.257,13.951,42.566,26.47,36.485,38.989,35.77a28.954,28.954,0,0,0,14.315-5.193c-2.043.2-4.174.41-6.365.62-13.123,1.25-19.371-7.5-27.5-24.37s-3.124-26.869-6.247-29.994-3.125-25.619-3.125-25.619,2.5-10,3.749-13.748,14.373-8.748,14.373-8.748,0,9.373,9.007,8.685,15.363-10.56,15.363-10.56l-1.257-36a97.183,97.183,0,0,0-13.032-2.083c-21.1-1.788-46.143,13.593-51.152,26.113" transform="translate(-136.162 -78.63)" fill="#dbdbdb"/></g></g><g clip-path="url(#b)"><path d="M243.877,115.616s-1.789,26.47-4.65,35.77-6.8,37.917-15.381,50.436-19.674,23.25-32.193,23.965-29.332-21.461-38.989-35.77-10.732-28.617-13.95-42.567-3.935-30.046,1.072-42.566,30.047-27.9,51.152-26.113,47.574,12.878,52.939,21.1A14.365,14.365,0,0,1,243.877,115.616Z" transform="translate(50.061 28.909)" fill="none" stroke="#263238" stroke-linecap="round" stroke-linejoin="round" stroke-width="1"/><path d="M189.659,131.566s.358,18.243,9.658,22.893c0,0,2.146.715,1.072,3.219s-9.3,3.935-15.022-.358" transform="translate(68.151 48.371)" fill="none" stroke="#263238" stroke-linecap="round" stroke-linejoin="round" stroke-width="1"/><path d="M194.837,122.223a2.051,2.051,0,0,1-1.309-3.632c.328-.274,8.218-6.629,20.736-2.228a2.051,2.051,0,0,1-1.359,3.87c-10.357-3.637-16.7,1.469-16.765,1.519a2.033,2.033,0,0,1-1.3.47" transform="translate(70.878 42.213)" fill="#1d1c21"/><path d="M183.607,121.739a2.051,2.051,0,0,1-1.772-1.016c-.217-.367-5.14-8.466-14.823-7.13a2.051,2.051,0,1,1-.563-4.063c12.47-1.723,18.673,8.683,18.931,9.128a2.052,2.052,0,0,1-1.773,3.081" transform="translate(60.545 40.199)" fill="#1d1c21"/><line x2="5.796" transform="translate(250.252 225.333)" fill="none" stroke="#263238" stroke-linecap="round" stroke-linejoin="round" stroke-width="1"/><path d="M151.347,72.139S128.1,79.65,126.308,88.95s10.015,41.852,9.658,45.786-3.935,7.154,0,12.878,11.088,14.307,13.95,9.657-1.074-11.446,3.576-14.308,11.089-7.511,7.513-13.592-1.789-15.024,5.722-16.1,13.951-6.081,10.017-.357-15.382,19.674-9.3,20.746,30.046-15.022,30.046-15.022-8.226,16.453-3.935,17.527,37.917-21.1,37.917-21.1,16.1,21.1,19.315,19.674S251.86,121.5,251.86,121.5s2.5,15.739,7.513,16.454,11.8-7.87,9.658-13.235-5.724-12.878-5.724-12.878,7.154-1.788,10.015-5.007,2.5-3.578-3.576-4.65-10.732-7.869-16.454-13.951-15.024-14.307-15.024-14.307,10.731,4.65,5.007-.715-36.127-17.528-52.581-17.528-22.536,8.585-22.536,8.585,2.863-10.731-.357-9.3-6.8,10.015-6.8,10.015-7.513-2.146-11.447.358-5.007,5.007-1.788,5.007a18.6,18.6,0,0,1,5.365.715Z" transform="translate(46.37 20.162)" fill="#1d1c21"/></g><g transform="translate(172.493 75)"><g clip-path="url(#n)"><g transform="translate(16.453 48.385)" opacity="0.2"><g clip-path="url(#o)"><path d="M145.493,143.7c2.861-4.65-1.074-11.446,3.576-14.308s11.089-7.511,7.513-13.592-1.789-15.024,5.722-16.1c5.657-.808,10.7-3.842,11.168-2.852,2.434-3.337,3.463-5.884.015-4.848-6.644,1.993-27.244,5.316-25.25,11.96s3.322,9.967-1.994,11.962-5.316,6.644-5.316,11.96c0,4.547-2.15,12.083-2.774,14.173,2.91,2.754,5.77,4.192,7.339,1.643" transform="translate(-138.153 -89.647)" fill="#fff"/><path d="M218.06,103.7l.473,6.665s.088.4.22,1.046a46.676,46.676,0,0,0-.63-7.34c.414,2.374,2.9,15.433,7.448,16.084,5.008.715,11.8-7.869,9.658-13.235-.462-1.157-.993-2.414-1.539-3.674-1.652,2.593-3.925,5.126-6.52,5.126-5.316,0-9.111-4.672-9.111-4.672" transform="translate(-108.775 -85.424)" fill="#fff"/><path d="M227,117.714c-4.408-9.9-9.238-22.737-11.732-26.476-3.987-5.981-17.941,15.948-29.9,23.257-4.876,2.98-8.4,4.281-10.628,4.308-.427,2.277-.284,4.03,1.022,4.357,4.293,1.074,37.917-21.1,37.917-21.1A193.9,193.9,0,0,0,227,117.714" transform="translate(-124.781 -90.216)" fill="#fff"/><path d="M155.392,115.488c-.652,2.067-.412,3.55,1.411,3.872,4.588.81,19.358-8.155,26.331-12.6,3.959-4.862,8.849-7.861,9.386-12.164.665-5.315-24.586,15.948-33.224,19.935a7.227,7.227,0,0,1-3.9.961" transform="translate(-131.936 -88.919)" fill="#fff"/></g></g></g></g><g clip-path="url(#b)"><path d="M196.069,122.646s-5.223-5.624-19.285-5.223-24.1,2.812-26.917,4.419-1.2,3.616-.4,6.428,2.813,16.07,6.029,21.293,11.648,9.642,17.275,9.642,8.836-1.2,14.862-5.625,10.044-20.489,10.446-21.694,0-3.616,4.017-2.41,4.419,18.882,5.627,22.5,9.239,8.437,15.667,8.437,12.454-3.214,17.677-12.454a29.353,29.353,0,0,0,3.616-18.079s5.624-4.419,1.2-6.026-19.612-5.826-29.328-2.812c-11.651,3.616-17.676,2.812-20.488,1.607" transform="translate(54.514 43.164)" fill="#1d1c21"/><path d="M158.144,120.942l-26.917,3.616v3.214l26.515-1.607s-2.41-4.018.4-5.223" transform="translate(48.246 44.465)" fill="#1d1c21"/></g><g transform="translate(206.985 164.487)"><g clip-path="url(#q)"><path d="M0,0H89.793V35.168H0Z" transform="translate(0)" fill="#8d47fc"/></g></g><g clip-path="url(#b)"><path d="M159.952,125.359h-2.06a.508.508,0,0,1,0-1.016h2.06a.508.508,0,1,1,0,1.016m.509,1.845a.508.508,0,0,0-.509-.507h-2.06a.508.508,0,0,0,0,1.016h2.06a.509.509,0,0,0,.509-.509m0,2.354a.508.508,0,0,0-.509-.507h-2.06a.508.508,0,0,0,0,1.016h2.06a.51.51,0,0,0,.509-.509m0,2.354a.508.508,0,0,0-.509-.507h-2.06a.507.507,0,0,0,0,1.015h2.06a.508.508,0,0,0,.509-.507m0,2.354a.509.509,0,0,0-.509-.509h-2.06a.508.508,0,0,0,0,1.016h2.06a.508.508,0,0,0,.509-.507m0,2.354a.508.508,0,0,0-.509-.507h-2.06a.507.507,0,1,0,0,1.015h2.06a.508.508,0,0,0,.509-.507m0,2.354a.509.509,0,0,0-.509-.509h-2.06a.508.508,0,0,0,0,1.016h2.06a.508.508,0,0,0,.509-.507m0,2.354a.509.509,0,0,0-.509-.509h-2.06a.508.508,0,0,0,0,1.016h2.06a.508.508,0,0,0,.509-.507m7.7-16.475a.508.508,0,0,0-.509-.509h-5.4a.508.508,0,1,0,0,1.016h5.4a.508.508,0,0,0,.509-.507m0,2.352a.508.508,0,0,0-.509-.507h-5.4a.508.508,0,1,0,0,1.016h5.4a.508.508,0,0,0,.509-.509m0,2.354a.508.508,0,0,0-.509-.507h-5.4a.508.508,0,1,0,0,1.016h5.4a.509.509,0,0,0,.509-.509m0,2.354a.508.508,0,0,0-.509-.507h-5.4a.507.507,0,1,0,0,1.015h5.4a.508.508,0,0,0,.509-.507m0,2.354a.508.508,0,0,0-.509-.509h-5.4a.508.508,0,1,0,0,1.016h5.4a.508.508,0,0,0,.509-.507m6.472,2.354a.507.507,0,0,0-.507-.507h-5.406a.507.507,0,0,0,0,1.015h5.406a.507.507,0,0,0,.507-.507m0,2.354a.507.507,0,0,0-.507-.509h-5.406a.508.508,0,0,0,0,1.016h5.406a.507.507,0,0,0,.507-.507m0,2.354a.508.508,0,0,0-.507-.509h-5.406a.508.508,0,0,0,0,1.016h5.406a.507.507,0,0,0,.507-.507m-4.093-16.475a.588.588,0,1,0-.588.588.589.589,0,0,0,.588-.588m1.766,0a.589.589,0,1,0-.588.588.589.589,0,0,0,.588-.588m1.764,0a.588.588,0,1,0-.588.588.588.588,0,0,0,.588-.588m1.766,0a.588.588,0,1,0-.588.588.589.589,0,0,0,.588-.588m1.766,0a.589.589,0,1,0-.589.588.59.59,0,0,0,.589-.588m1.764,0a.588.588,0,1,0-.588.588.588.588,0,0,0,.588-.588m-8.826,4.706a.588.588,0,1,0-.588.588.589.589,0,0,0,.588-.588m1.766,0a.589.589,0,1,0-.588.588.589.589,0,0,0,.588-.588m1.764,0a.588.588,0,1,0-.588.588.588.588,0,0,0,.588-.588m1.766,0a.588.588,0,1,0-.588.588.589.589,0,0,0,.588-.588m1.766,0a.589.589,0,1,0-.589.588.589.589,0,0,0,.589-.588m1.764,0a.588.588,0,1,0-.588.588.588.588,0,0,0,.588-.588m-2.794,6.767a.589.589,0,1,0-.588.588.589.589,0,0,0,.588-.588m1.764,0a.588.588,0,1,0-.588.588.588.588,0,0,0,.588-.588m1.766,0a.588.588,0,1,0-.588.588.589.589,0,0,0,.588-.588m1.766,0a.589.589,0,1,0-.589.588.59.59,0,0,0,.589-.588m1.764,0a.588.588,0,1,0-.588.588.588.588,0,0,0,.588-.588m1.766,0a.588.588,0,1,0-.588.588.589.589,0,0,0,.588-.588m-8.825,4.854a.589.589,0,1,0-.588.588.588.588,0,0,0,.588-.588m1.764,0a.588.588,0,1,0-.588.588.587.587,0,0,0,.588-.588m1.766,0a.588.588,0,1,0-.588.588.588.588,0,0,0,.588-.588m1.766,0a.589.589,0,1,0-.589.588.588.588,0,0,0,.589-.588m1.764,0a.588.588,0,1,0-.588.588.587.587,0,0,0,.588-.588m1.766,0a.588.588,0,1,0-.588.588.588.588,0,0,0,.588-.588" transform="translate(57.864 45.686)" fill="#1d1c21"/><path d="M196.734,125.359h-2.06a.508.508,0,0,1,0-1.016h2.06a.508.508,0,1,1,0,1.016m.509,1.845a.508.508,0,0,0-.509-.507h-2.06a.508.508,0,0,0,0,1.016h2.06a.509.509,0,0,0,.509-.509m0,2.354a.508.508,0,0,0-.509-.507h-2.06a.508.508,0,0,0,0,1.016h2.06a.51.51,0,0,0,.509-.509m0,2.354a.508.508,0,0,0-.509-.507h-2.06a.507.507,0,0,0,0,1.015h2.06a.508.508,0,0,0,.509-.507m0,2.354a.509.509,0,0,0-.509-.509h-2.06a.508.508,0,0,0,0,1.016h2.06a.508.508,0,0,0,.509-.507m0,2.354a.508.508,0,0,0-.509-.507h-2.06a.507.507,0,0,0,0,1.015h2.06a.508.508,0,0,0,.509-.507m0,2.354a.509.509,0,0,0-.509-.509h-2.06a.508.508,0,0,0,0,1.016h2.06a.508.508,0,0,0,.509-.507m0,2.354a.509.509,0,0,0-.509-.509h-2.06a.508.508,0,0,0,0,1.016h2.06a.508.508,0,0,0,.509-.507m7.7-16.475a.508.508,0,0,0-.509-.509h-5.4a.508.508,0,1,0,0,1.016h5.4a.508.508,0,0,0,.509-.507m0,2.352a.508.508,0,0,0-.509-.507h-5.4a.508.508,0,1,0,0,1.016h5.4a.508.508,0,0,0,.509-.509m0,2.354a.508.508,0,0,0-.509-.507h-5.4a.508.508,0,1,0,0,1.016h5.4a.509.509,0,0,0,.509-.509m0,2.354a.508.508,0,0,0-.509-.507h-5.4a.507.507,0,1,0,0,1.015h5.4a.508.508,0,0,0,.509-.507m0,2.354a.508.508,0,0,0-.509-.509h-5.4a.508.508,0,1,0,0,1.016h5.4a.508.508,0,0,0,.509-.507m6.472,2.354a.507.507,0,0,0-.507-.507H205.5a.507.507,0,1,0,0,1.015h5.406a.507.507,0,0,0,.507-.507m0,2.354a.508.508,0,0,0-.507-.509H205.5a.508.508,0,0,0,0,1.016h5.406a.507.507,0,0,0,.507-.507m0,2.354a.508.508,0,0,0-.507-.509H205.5a.508.508,0,0,0,0,1.016h5.406a.507.507,0,0,0,.507-.507m-4.093-16.475a.588.588,0,1,0-.588.588.588.588,0,0,0,.588-.588m1.766,0a.589.589,0,1,0-.588.588.589.589,0,0,0,.588-.588m1.764,0a.588.588,0,1,0-.588.588.588.588,0,0,0,.588-.588m1.766,0a.588.588,0,1,0-.588.588.589.589,0,0,0,.588-.588m1.766,0a.589.589,0,1,0-.589.588.59.59,0,0,0,.589-.588m1.764,0a.588.588,0,1,0-.588.588.588.588,0,0,0,.588-.588m-8.825,4.706a.588.588,0,1,0-.588.588.588.588,0,0,0,.588-.588m1.766,0a.589.589,0,1,0-.588.588.589.589,0,0,0,.588-.588m1.764,0a.588.588,0,1,0-.588.588.588.588,0,0,0,.588-.588m1.766,0a.588.588,0,1,0-.588.588.589.589,0,0,0,.588-.588m1.766,0a.589.589,0,1,0-.589.588.589.589,0,0,0,.589-.588m1.764,0a.588.588,0,1,0-.588.588.588.588,0,0,0,.588-.588m-2.794,6.767a.589.589,0,1,0-.588.588.589.589,0,0,0,.588-.588m1.764,0a.588.588,0,1,0-.588.588.588.588,0,0,0,.588-.588m1.766,0a.588.588,0,1,0-.588.588.589.589,0,0,0,.588-.588m1.766,0a.589.589,0,1,0-.588.588.589.589,0,0,0,.588-.588m1.764,0a.588.588,0,1,0-.588.588.588.588,0,0,0,.588-.588m1.766,0a.588.588,0,1,0-.588.588.589.589,0,0,0,.588-.588m-8.825,4.854a.589.589,0,1,0-.588.588.588.588,0,0,0,.588-.588m1.764,0a.588.588,0,1,0-.588.588.587.587,0,0,0,.588-.588m1.766,0a.588.588,0,1,0-.588.588.588.588,0,0,0,.588-.588m1.766,0a.589.589,0,1,0-.588.588.588.588,0,0,0,.588-.588m1.764,0a.588.588,0,1,0-.588.588.587.587,0,0,0,.588-.588m1.766,0a.588.588,0,1,0-.588.588.588.588,0,0,0,.588-.588" transform="translate(71.387 45.686)" fill="#1d1c21"/><path d="M150.465,140.612s-8.585-20.031-16.1-20.031-7.154,16.813-2.5,25.756,14.665,12.518,17.527,7.153" transform="translate(47.251 44.332)" fill="#fff"/></g><g transform="translate(175.772 164.913)"><g clip-path="url(#s)"><path d="M150.465,140.612s-8.585-20.031-16.1-20.031-7.154,16.813-2.5,25.756,14.665,12.518,17.527,7.153" transform="translate(-128.52 -120.581)" fill="#c6ff00"/><path d="M150.465,140.612s-8.585-20.031-16.1-20.031-7.154,16.813-2.5,25.756,14.665,12.518,17.527,7.153" transform="translate(-128.52 -120.581)" fill="#dbdbdb"/></g></g><g clip-path="url(#b)"><path d="M150.465,140.612s-8.585-20.031-16.1-20.031-7.154,16.813-2.5,25.756,14.665,12.518,17.527,7.153" transform="translate(47.251 44.332)" fill="none" stroke="#263238" stroke-linecap="round" stroke-linejoin="round" stroke-width="1"/><path d="M131.007,131.537s-1.089-8.712,3.05-7.187,8.929,15.247,8.929,15.247-3.485-3.7-3.049-.219a3.966,3.966,0,0,0,3.485,3.7" transform="translate(48.118 45.652)" fill="none" stroke="#263238" stroke-linecap="round" stroke-linejoin="round" stroke-width="1"/></g><g transform="translate(286.122 247.057)"><g clip-path="url(#u)"><rect width="198.506" height="116.386" transform="translate(0)" fill="#4a494d"/></g></g><g transform="translate(201.048 363.444)"><g clip-path="url(#v)"><rect width="252.856" height="8.27" fill="#4a494d"/></g></g><g transform="translate(286.122 363.444)"><g clip-path="url(#w)"><rect width="171.422" height="8.27" fill="#4a494d"/></g></g><g transform="translate(287.997 247.057)"><g clip-path="url(#x)"><rect width="198.506" height="116.386" transform="translate(0)" fill="#4a494d"/></g></g><g clip-path="url(#b)"><path d="M313.115,231.255A24.178,24.178,0,1,0,288.938,255.2a24.064,24.064,0,0,0,24.177-23.948" transform="translate(97.341 76.218)" fill="#1d1c21"/><path d="M268.4,229.788a2.063,2.063,0,0,1-1.089-1.19,2.355,2.355,0,0,1,.026-1.757,2.456,2.456,0,0,1,1.411-1.369L279,221.355q.509-.213,1.071.447a2.29,2.29,0,0,1,.587,1.417,1.26,1.26,0,0,1-.695,1.183l-8.581,3.341,8.607,3.462a1.249,1.249,0,0,1,.542,1.123,2.4,2.4,0,0,1-.494,1.416q-.488.669-1,.455Z" transform="translate(98.222 81.363)" fill="#8d47fc"/><path d="M279.879,237.262a1.135,1.135,0,0,1-.435-.935,7.379,7.379,0,0,1,.334-1.457l5.681-16.452q.533-1.846,1.524-1.845a1.418,1.418,0,0,1,.975.354,1.3,1.3,0,0,1,.4,1.022,4.627,4.627,0,0,1-.309,1.364l-5.96,17.361a1.2,1.2,0,0,1-1.243.935,1.514,1.514,0,0,1-.968-.347" transform="translate(102.739 79.624)" fill="#8d47fc"/><path d="M288.1,233.744a2.4,2.4,0,0,1-.494-1.417,1.248,1.248,0,0,1,.542-1.121l8.607-3.463-8.581-3.34a1.261,1.261,0,0,1-.695-1.183,2.28,2.28,0,0,1,.588-1.417c.375-.442.73-.589,1.069-.449l10.251,4.117a2.631,2.631,0,0,1,1.209.989,2.249,2.249,0,0,1,.388,1.283,2.588,2.588,0,0,1-.349,1.217,1.907,1.907,0,0,1-.9.829L289.094,234.2q-.509.213-1-.455" transform="translate(105.692 81.364)" fill="#8d47fc"/><rect width="548.885" height="8.206" transform="translate(0.684 369.891)" fill="#fff"/><rect width="548.885" height="8.206" transform="translate(0.684 369.891)" fill="none" stroke="#263238" stroke-linecap="round" stroke-linejoin="round" stroke-width="1"/></g></g></g></g></g></g></svg>