<svg xmlns="http://www.w3.org/2000/svg" xmlns:xlink="http://www.w3.org/1999/xlink" width="431" height="503" viewBox="0 0 431 503"><defs><clipPath id="a"><rect width="431" height="503" transform="translate(1489 2008)" fill="#fff" stroke="#707070" stroke-width="1"/></clipPath><clipPath id="b"><rect width="530.311" height="495.27" fill="none"/></clipPath></defs><g transform="translate(-356 -2015)"><g transform="translate(-1133 7)" clip-path="url(#a)"><g transform="translate(2025.311 2510.77) rotate(180)" opacity="0.041"><g transform="translate(0 0)" clip-path="url(#b)"><path d="M22.829,9.751H4.516a4.516,4.516,0,0,1,0-9.032H22.829a4.516,4.516,0,0,1,0,9.032m4.516,16.417a4.512,4.512,0,0,0-4.516-4.522H4.516a4.519,4.519,0,0,0,0,9.038H22.829a4.51,4.51,0,0,0,4.516-4.516m0,20.927a4.51,4.51,0,0,0-4.516-4.516H4.516a4.516,4.516,0,1,0,0,9.032H22.829A4.51,4.51,0,0,0,27.345,47.1m0,20.927a4.51,4.51,0,0,0-4.516-4.516H4.516a4.516,4.516,0,1,0,0,9.032H22.829a4.51,4.51,0,0,0,4.516-4.516m0,20.927a4.51,4.51,0,0,0-4.516-4.516H4.516a4.519,4.519,0,0,0,0,9.038H22.829a4.512,4.512,0,0,0,4.516-4.522m0,20.939a4.515,4.515,0,0,0-4.516-4.522H4.516a4.519,4.519,0,0,0,0,9.038H22.829a4.51,4.51,0,0,0,4.516-4.516m0,20.927a4.51,4.51,0,0,0-4.516-4.516H4.516a4.516,4.516,0,1,0,0,9.032H22.829a4.51,4.51,0,0,0,4.516-4.516m0,20.927a4.51,4.51,0,0,0-4.516-4.516H4.516a4.516,4.516,0,0,0,0,9.032H22.829a4.51,4.51,0,0,0,4.516-4.516M95.86,5.235A4.514,4.514,0,0,0,91.344.719H43.27a4.516,4.516,0,1,0,0,9.032H91.344A4.514,4.514,0,0,0,95.86,5.235m0,20.933a4.515,4.515,0,0,0-4.516-4.522H43.27a4.519,4.519,0,0,0,0,9.038H91.344a4.514,4.514,0,0,0,4.516-4.516m0,20.927a4.514,4.514,0,0,0-4.516-4.516H43.27a4.516,4.516,0,1,0,0,9.032H91.344A4.514,4.514,0,0,0,95.86,47.1m0,20.927a4.514,4.514,0,0,0-4.516-4.516H43.27a4.516,4.516,0,1,0,0,9.032H91.344a4.514,4.514,0,0,0,4.516-4.516m0,20.927a4.514,4.514,0,0,0-4.516-4.516H43.27a4.519,4.519,0,0,0,0,9.038H91.344A4.515,4.515,0,0,0,95.86,88.95m57.559,20.939a4.519,4.519,0,0,0-4.516-4.522H100.829a4.519,4.519,0,0,0,0,9.038H148.9a4.514,4.514,0,0,0,4.516-4.516m0,20.927A4.514,4.514,0,0,0,148.9,126.3H100.829a4.516,4.516,0,1,0,0,9.032H148.9a4.514,4.514,0,0,0,4.516-4.516m0,20.927a4.514,4.514,0,0,0-4.516-4.516H100.829a4.516,4.516,0,1,0,0,9.032H148.9a4.514,4.514,0,0,0,4.516-4.516M117.019,5.235a5.235,5.235,0,1,0-5.235,5.235,5.234,5.234,0,0,0,5.235-5.235m15.693,0a5.232,5.232,0,1,0-5.229,5.235,5.232,5.232,0,0,0,5.229-5.235m15.7,0a5.232,5.232,0,1,0-5.229,5.235,5.232,5.232,0,0,0,5.229-5.235m15.7,0a5.232,5.232,0,1,0-5.229,5.235,5.232,5.232,0,0,0,5.229-5.235m15.7,0a5.232,5.232,0,1,0-5.235,5.235,5.234,5.234,0,0,0,5.235-5.235m15.7,0a5.232,5.232,0,1,0-5.235,5.235,5.234,5.234,0,0,0,5.235-5.235M117.019,47.1a5.235,5.235,0,1,0-5.235,5.235,5.234,5.234,0,0,0,5.235-5.235m15.693,0a5.232,5.232,0,1,0-5.229,5.235,5.232,5.232,0,0,0,5.229-5.235m15.7,0a5.232,5.232,0,1,0-5.229,5.235,5.232,5.232,0,0,0,5.229-5.235m15.7,0a5.232,5.232,0,1,0-5.229,5.235,5.232,5.232,0,0,0,5.229-5.235m15.7,0a5.232,5.232,0,1,0-5.235,5.235,5.234,5.234,0,0,0,5.235-5.235m15.7,0a5.232,5.232,0,1,0-5.235,5.235,5.234,5.234,0,0,0,5.235-5.235m-24.855,60.173a5.232,5.232,0,1,0-5.235,5.235,5.234,5.234,0,0,0,5.235-5.235m15.7,0a5.235,5.235,0,1,0-5.235,5.235,5.234,5.234,0,0,0,5.235-5.235m15.7,0a5.235,5.235,0,1,0-5.235,5.235,5.234,5.234,0,0,0,5.235-5.235m15.693,0a5.232,5.232,0,1,0-5.229,5.235,5.233,5.233,0,0,0,5.229-5.235m15.7,0a5.232,5.232,0,1,0-5.229,5.235,5.232,5.232,0,0,0,5.229-5.235m15.7,0A5.232,5.232,0,1,0,243.9,112.5a5.234,5.234,0,0,0,5.235-5.235m-78.486,43.168a5.232,5.232,0,1,0-5.235,5.235,5.234,5.234,0,0,0,5.235-5.235m15.7,0a5.235,5.235,0,1,0-5.235,5.235,5.234,5.234,0,0,0,5.235-5.235m15.7,0a5.235,5.235,0,1,0-5.235,5.235,5.234,5.234,0,0,0,5.235-5.235m15.693,0a5.232,5.232,0,1,0-5.229,5.235,5.233,5.233,0,0,0,5.229-5.235m15.7,0a5.232,5.232,0,1,0-5.229,5.235,5.232,5.232,0,0,0,5.229-5.235m15.7,0a5.232,5.232,0,1,0-5.235,5.235,5.234,5.234,0,0,0,5.235-5.235" transform="translate(0 -0.001)" fill="#fff"/><path d="M22.829,39.346H4.516a4.516,4.516,0,0,1,0-9.032H22.829a4.516,4.516,0,0,1,0,9.032m4.516,16.411a4.51,4.51,0,0,0-4.516-4.516H4.516a4.519,4.519,0,0,0,0,9.038H22.829a4.512,4.512,0,0,0,4.516-4.522m0,20.933a4.51,4.51,0,0,0-4.516-4.516H4.516a4.516,4.516,0,0,0,0,9.032H22.829a4.51,4.51,0,0,0,4.516-4.516m0,20.927A4.51,4.51,0,0,0,22.829,93.1H4.516a4.516,4.516,0,1,0,0,9.032H22.829a4.51,4.51,0,0,0,4.516-4.516m0,20.927a4.51,4.51,0,0,0-4.516-4.516H4.516a4.519,4.519,0,0,0,0,9.038H22.829a4.512,4.512,0,0,0,4.516-4.522m0,20.939a4.512,4.512,0,0,0-4.516-4.522H4.516a4.519,4.519,0,0,0,0,9.038H22.829a4.51,4.51,0,0,0,4.516-4.516m0,20.927a4.51,4.51,0,0,0-4.516-4.516H4.516a4.516,4.516,0,1,0,0,9.032H22.829a4.51,4.51,0,0,0,4.516-4.516m0,20.927a4.51,4.51,0,0,0-4.516-4.516H4.516a4.516,4.516,0,1,0,0,9.032H22.829a4.51,4.51,0,0,0,4.516-4.516M95.86,34.83a4.514,4.514,0,0,0-4.516-4.516H43.27a4.516,4.516,0,0,0,0,9.032H91.344A4.514,4.514,0,0,0,95.86,34.83m0,20.927a4.514,4.514,0,0,0-4.516-4.516H43.27a4.519,4.519,0,0,0,0,9.038H91.344a4.515,4.515,0,0,0,4.516-4.522m0,20.933a4.514,4.514,0,0,0-4.516-4.516H43.27a4.516,4.516,0,0,0,0,9.032H91.344A4.514,4.514,0,0,0,95.86,76.69m0,20.927A4.514,4.514,0,0,0,91.344,93.1H43.27a4.516,4.516,0,1,0,0,9.032H91.344a4.514,4.514,0,0,0,4.516-4.516m0,20.927a4.514,4.514,0,0,0-4.516-4.516H43.27a4.519,4.519,0,0,0,0,9.038H91.344a4.515,4.515,0,0,0,4.516-4.522m57.559,20.939a4.515,4.515,0,0,0-4.516-4.522H100.829a4.519,4.519,0,0,0,0,9.038H148.9a4.514,4.514,0,0,0,4.516-4.516m0,20.927A4.514,4.514,0,0,0,148.9,155.9H100.829a4.516,4.516,0,1,0,0,9.032H148.9a4.514,4.514,0,0,0,4.516-4.516m0,20.927a4.514,4.514,0,0,0-4.516-4.516H100.829a4.516,4.516,0,1,0,0,9.032H148.9a4.514,4.514,0,0,0,4.516-4.516M117.019,34.83a5.235,5.235,0,1,0-5.235,5.235,5.234,5.234,0,0,0,5.235-5.235m15.693,0a5.232,5.232,0,1,0-5.229,5.235,5.232,5.232,0,0,0,5.229-5.235m15.7,0a5.232,5.232,0,1,0-5.229,5.235,5.233,5.233,0,0,0,5.229-5.235m15.7,0a5.232,5.232,0,1,0-5.229,5.235,5.233,5.233,0,0,0,5.229-5.235m15.7,0a5.232,5.232,0,1,0-5.235,5.235,5.234,5.234,0,0,0,5.235-5.235m15.7,0a5.232,5.232,0,1,0-5.235,5.235,5.234,5.234,0,0,0,5.235-5.235M117.019,76.69a5.235,5.235,0,1,0-5.235,5.235,5.234,5.234,0,0,0,5.235-5.235m15.693,0a5.232,5.232,0,1,0-5.229,5.235,5.232,5.232,0,0,0,5.229-5.235m15.7,0a5.232,5.232,0,1,0-5.229,5.235,5.232,5.232,0,0,0,5.229-5.235m15.7,0a5.232,5.232,0,1,0-5.229,5.235,5.232,5.232,0,0,0,5.229-5.235m15.7,0a5.232,5.232,0,1,0-5.235,5.235,5.234,5.234,0,0,0,5.235-5.235m15.7,0a5.232,5.232,0,1,0-5.235,5.235,5.234,5.234,0,0,0,5.235-5.235m-24.855,60.173a5.232,5.232,0,1,0-5.235,5.235,5.234,5.234,0,0,0,5.235-5.235m15.7,0a5.235,5.235,0,1,0-5.235,5.235,5.234,5.234,0,0,0,5.235-5.235m15.7,0a5.235,5.235,0,1,0-5.235,5.235,5.234,5.234,0,0,0,5.235-5.235m15.693,0a5.232,5.232,0,1,0-5.229,5.235,5.233,5.233,0,0,0,5.229-5.235m15.7,0a5.232,5.232,0,1,0-5.229,5.235,5.233,5.233,0,0,0,5.229-5.235m15.7,0A5.232,5.232,0,1,0,243.9,142.1a5.234,5.234,0,0,0,5.235-5.235m-78.486,43.168a5.232,5.232,0,1,0-5.235,5.235,5.234,5.234,0,0,0,5.235-5.235m15.7,0a5.235,5.235,0,1,0-5.235,5.235,5.234,5.234,0,0,0,5.235-5.235m15.7,0a5.235,5.235,0,1,0-5.235,5.235,5.234,5.234,0,0,0,5.235-5.235m15.693,0a5.232,5.232,0,1,0-5.229,5.235,5.233,5.233,0,0,0,5.229-5.235m15.7,0a5.232,5.232,0,1,0-5.229,5.235,5.233,5.233,0,0,0,5.229-5.235m15.7,0a5.232,5.232,0,1,0-5.235,5.235,5.234,5.234,0,0,0,5.235-5.235" transform="translate(0 137.886)" fill="#fff"/><path d="M22.829,69.656H4.516a4.516,4.516,0,1,1,0-9.032H22.829a4.516,4.516,0,1,1,0,9.032m4.516,16.411a4.51,4.51,0,0,0-4.516-4.516H4.516a4.519,4.519,0,0,0,0,9.038H22.829a4.515,4.515,0,0,0,4.516-4.522m0,20.933a4.51,4.51,0,0,0-4.516-4.516H4.516a4.516,4.516,0,1,0,0,9.032H22.829A4.51,4.51,0,0,0,27.345,107m0,20.927a4.51,4.51,0,0,0-4.516-4.516H4.516a4.516,4.516,0,0,0,0,9.032H22.829a4.51,4.51,0,0,0,4.516-4.516m0,20.927a4.51,4.51,0,0,0-4.516-4.516H4.516a4.519,4.519,0,0,0,0,9.038H22.829a4.512,4.512,0,0,0,4.516-4.522m0,20.939a4.512,4.512,0,0,0-4.516-4.522H4.516a4.519,4.519,0,0,0,0,9.038H22.829a4.51,4.51,0,0,0,4.516-4.516m0,20.927a4.51,4.51,0,0,0-4.516-4.516H4.516a4.516,4.516,0,1,0,0,9.032H22.829a4.51,4.51,0,0,0,4.516-4.516m0,20.927a4.51,4.51,0,0,0-4.516-4.516H4.516a4.516,4.516,0,0,0,0,9.032H22.829a4.51,4.51,0,0,0,4.516-4.516M95.86,65.14a4.514,4.514,0,0,0-4.516-4.516H43.27a4.516,4.516,0,1,0,0,9.032H91.344A4.514,4.514,0,0,0,95.86,65.14m0,20.927a4.514,4.514,0,0,0-4.516-4.516H43.27a4.519,4.519,0,0,0,0,9.038H91.344a4.519,4.519,0,0,0,4.516-4.522m0,20.933a4.514,4.514,0,0,0-4.516-4.516H43.27a4.516,4.516,0,1,0,0,9.032H91.344A4.514,4.514,0,0,0,95.86,107m0,20.927a4.514,4.514,0,0,0-4.516-4.516H43.27a4.516,4.516,0,0,0,0,9.032H91.344a4.514,4.514,0,0,0,4.516-4.516m0,20.927a4.514,4.514,0,0,0-4.516-4.516H43.27a4.519,4.519,0,0,0,0,9.038H91.344a4.515,4.515,0,0,0,4.516-4.522m57.559,20.939a4.515,4.515,0,0,0-4.516-4.522H100.829a4.519,4.519,0,0,0,0,9.038H148.9a4.514,4.514,0,0,0,4.516-4.516m0,20.927a4.514,4.514,0,0,0-4.516-4.516H100.829a4.516,4.516,0,1,0,0,9.032H148.9a4.514,4.514,0,0,0,4.516-4.516m0,20.927a4.514,4.514,0,0,0-4.516-4.516H100.829a4.516,4.516,0,0,0,0,9.032H148.9a4.514,4.514,0,0,0,4.516-4.516M117.019,65.14a5.235,5.235,0,1,0-5.235,5.235,5.234,5.234,0,0,0,5.235-5.235m15.693,0a5.232,5.232,0,1,0-5.229,5.235,5.233,5.233,0,0,0,5.229-5.235m15.7,0a5.232,5.232,0,1,0-5.229,5.235,5.233,5.233,0,0,0,5.229-5.235m15.7,0a5.232,5.232,0,1,0-5.229,5.235,5.233,5.233,0,0,0,5.229-5.235m15.7,0a5.232,5.232,0,1,0-5.235,5.235,5.234,5.234,0,0,0,5.235-5.235m15.7,0a5.232,5.232,0,1,0-5.235,5.235,5.234,5.234,0,0,0,5.235-5.235M117.019,107a5.235,5.235,0,1,0-5.235,5.229A5.234,5.234,0,0,0,117.019,107m15.693,0a5.232,5.232,0,1,0-5.229,5.229A5.233,5.233,0,0,0,132.712,107m15.7,0a5.232,5.232,0,1,0-5.229,5.229A5.233,5.233,0,0,0,148.411,107m15.7,0a5.232,5.232,0,1,0-5.229,5.229A5.233,5.233,0,0,0,164.109,107m15.7,0a5.232,5.232,0,1,0-5.235,5.229A5.234,5.234,0,0,0,179.807,107m15.7,0a5.232,5.232,0,1,0-5.235,5.229A5.234,5.234,0,0,0,195.506,107m-24.855,60.173a5.232,5.232,0,1,0-5.235,5.229,5.234,5.234,0,0,0,5.235-5.229m15.7,0a5.235,5.235,0,1,0-5.235,5.229,5.234,5.234,0,0,0,5.235-5.229m15.7,0a5.235,5.235,0,1,0-5.235,5.229,5.234,5.234,0,0,0,5.235-5.229m15.693,0a5.232,5.232,0,1,0-5.229,5.229,5.233,5.233,0,0,0,5.229-5.229m15.7,0a5.232,5.232,0,1,0-5.229,5.229,5.233,5.233,0,0,0,5.229-5.229m15.7,0A5.232,5.232,0,1,0,243.9,172.4a5.234,5.234,0,0,0,5.235-5.229m-78.486,43.168a5.232,5.232,0,1,0-5.235,5.235,5.234,5.234,0,0,0,5.235-5.235m15.7,0a5.235,5.235,0,1,0-5.235,5.235,5.234,5.234,0,0,0,5.235-5.235m15.7,0a5.235,5.235,0,1,0-5.235,5.235,5.234,5.234,0,0,0,5.235-5.235m15.693,0a5.232,5.232,0,1,0-5.229,5.235,5.233,5.233,0,0,0,5.229-5.235m15.7,0a5.232,5.232,0,1,0-5.229,5.235,5.232,5.232,0,0,0,5.229-5.235m15.7,0a5.232,5.232,0,1,0-5.235,5.235,5.234,5.234,0,0,0,5.235-5.235" transform="translate(0 279.104)" fill="#fff"/><path d="M72.514,9.751H54.2a4.516,4.516,0,1,1,0-9.032H72.514a4.516,4.516,0,0,1,0,9.032M77.03,26.168a4.515,4.515,0,0,0-4.516-4.522H54.2a4.519,4.519,0,0,0,0,9.038H72.514a4.514,4.514,0,0,0,4.516-4.516m0,20.927a4.514,4.514,0,0,0-4.516-4.516H54.2a4.516,4.516,0,1,0,0,9.032H72.514A4.514,4.514,0,0,0,77.03,47.1m0,20.927a4.514,4.514,0,0,0-4.516-4.516H54.2a4.516,4.516,0,1,0,0,9.032H72.514a4.514,4.514,0,0,0,4.516-4.516m0,20.927a4.514,4.514,0,0,0-4.516-4.516H54.2a4.519,4.519,0,0,0,0,9.038H72.514A4.515,4.515,0,0,0,77.03,88.95m0,20.939a4.519,4.519,0,0,0-4.516-4.522H54.2a4.519,4.519,0,0,0,0,9.038H72.514a4.514,4.514,0,0,0,4.516-4.516m0,20.927a4.514,4.514,0,0,0-4.516-4.516H54.2a4.516,4.516,0,1,0,0,9.032H72.514a4.514,4.514,0,0,0,4.516-4.516m0,20.927a4.514,4.514,0,0,0-4.516-4.516H54.2a4.516,4.516,0,1,0,0,9.032H72.514a4.514,4.514,0,0,0,4.516-4.516M145.545,5.235A4.514,4.514,0,0,0,141.029.719H92.955a4.516,4.516,0,1,0,0,9.032h48.074a4.514,4.514,0,0,0,4.516-4.516m0,20.933a4.515,4.515,0,0,0-4.516-4.522H92.955a4.519,4.519,0,0,0,0,9.038h48.074a4.514,4.514,0,0,0,4.516-4.516m0,20.927a4.514,4.514,0,0,0-4.516-4.516H92.955a4.516,4.516,0,1,0,0,9.032h48.074a4.514,4.514,0,0,0,4.516-4.516m0,20.927a4.514,4.514,0,0,0-4.516-4.516H92.955a4.516,4.516,0,1,0,0,9.032h48.074a4.514,4.514,0,0,0,4.516-4.516m0,20.927a4.514,4.514,0,0,0-4.516-4.516H92.955a4.519,4.519,0,0,0,0,9.038h48.074a4.515,4.515,0,0,0,4.516-4.522M203.1,109.889a4.519,4.519,0,0,0-4.516-4.522H150.514a4.519,4.519,0,0,0,0,9.038h48.074a4.514,4.514,0,0,0,4.516-4.516m0,20.927a4.514,4.514,0,0,0-4.516-4.516H150.514a4.516,4.516,0,0,0,0,9.032h48.074a4.514,4.514,0,0,0,4.516-4.516m0,20.927a4.514,4.514,0,0,0-4.516-4.516H150.514a4.516,4.516,0,0,0,0,9.032h48.074a4.514,4.514,0,0,0,4.516-4.516M166.7,5.235a5.235,5.235,0,1,0-5.235,5.235A5.234,5.234,0,0,0,166.7,5.235m15.693,0a5.232,5.232,0,1,0-5.229,5.235A5.233,5.233,0,0,0,182.4,5.235m15.7,0a5.232,5.232,0,1,0-5.229,5.235A5.233,5.233,0,0,0,198.1,5.235m15.7,0a5.232,5.232,0,1,0-5.235,5.235,5.234,5.234,0,0,0,5.235-5.235m15.7,0a5.232,5.232,0,1,0-5.235,5.235,5.234,5.234,0,0,0,5.235-5.235m15.7,0a5.235,5.235,0,1,0-5.235,5.235,5.234,5.234,0,0,0,5.235-5.235M166.7,47.1a5.235,5.235,0,1,0-5.235,5.235A5.234,5.234,0,0,0,166.7,47.1m15.693,0a5.232,5.232,0,1,0-5.229,5.235A5.233,5.233,0,0,0,182.4,47.1m15.7,0a5.232,5.232,0,1,0-5.229,5.235A5.233,5.233,0,0,0,198.1,47.1m15.7,0a5.232,5.232,0,1,0-5.235,5.235,5.234,5.234,0,0,0,5.235-5.235m15.7,0a5.232,5.232,0,1,0-5.235,5.235,5.234,5.234,0,0,0,5.235-5.235m15.7,0a5.235,5.235,0,1,0-5.235,5.235,5.234,5.234,0,0,0,5.235-5.235m-24.855,60.173A5.232,5.232,0,1,0,215.1,112.5a5.234,5.234,0,0,0,5.235-5.235m15.7,0A5.235,5.235,0,1,0,230.8,112.5a5.234,5.234,0,0,0,5.235-5.235m15.693,0A5.232,5.232,0,1,0,246.5,112.5a5.233,5.233,0,0,0,5.229-5.235m15.7,0A5.232,5.232,0,1,0,262.2,112.5a5.233,5.233,0,0,0,5.229-5.235m15.7,0a5.232,5.232,0,1,0-5.235,5.235,5.234,5.234,0,0,0,5.235-5.235m15.7,0a5.232,5.232,0,1,0-5.235,5.235,5.234,5.234,0,0,0,5.235-5.235m-78.486,43.168a5.232,5.232,0,1,0-5.235,5.235,5.234,5.234,0,0,0,5.235-5.235m15.7,0a5.235,5.235,0,1,0-5.235,5.235,5.234,5.234,0,0,0,5.235-5.235m15.693,0a5.232,5.232,0,1,0-5.229,5.235,5.233,5.233,0,0,0,5.229-5.235m15.7,0a5.232,5.232,0,1,0-5.229,5.235,5.233,5.233,0,0,0,5.229-5.235m15.7,0a5.232,5.232,0,1,0-5.235,5.235,5.234,5.234,0,0,0,5.235-5.235m15.7,0a5.232,5.232,0,1,0-5.235,5.235,5.234,5.234,0,0,0,5.235-5.235" transform="translate(231.489 -0.001)" fill="#fff"/><path d="M72.514,40.061H54.2a4.516,4.516,0,1,1,0-9.032H72.514a4.516,4.516,0,0,1,0,9.032M77.03,56.472a4.514,4.514,0,0,0-4.516-4.516H54.2a4.519,4.519,0,0,0,0,9.038H72.514a4.515,4.515,0,0,0,4.516-4.522m0,20.933a4.514,4.514,0,0,0-4.516-4.516H54.2a4.516,4.516,0,1,0,0,9.032H72.514a4.514,4.514,0,0,0,4.516-4.516m0,20.927a4.514,4.514,0,0,0-4.516-4.516H54.2a4.516,4.516,0,1,0,0,9.032H72.514a4.514,4.514,0,0,0,4.516-4.516m0,20.927a4.514,4.514,0,0,0-4.516-4.516H54.2a4.519,4.519,0,0,0,0,9.038H72.514a4.515,4.515,0,0,0,4.516-4.522m0,20.939a4.515,4.515,0,0,0-4.516-4.522H54.2a4.519,4.519,0,0,0,0,9.038H72.514A4.514,4.514,0,0,0,77.03,140.2m0,20.927a4.514,4.514,0,0,0-4.516-4.516H54.2a4.516,4.516,0,0,0,0,9.032H72.514a4.514,4.514,0,0,0,4.516-4.516m0,20.927a4.514,4.514,0,0,0-4.516-4.516H54.2a4.516,4.516,0,0,0,0,9.032H72.514a4.514,4.514,0,0,0,4.516-4.516M145.545,35.545a4.514,4.514,0,0,0-4.516-4.516H92.955a4.516,4.516,0,1,0,0,9.032h48.074a4.514,4.514,0,0,0,4.516-4.516m0,20.927a4.514,4.514,0,0,0-4.516-4.516H92.955a4.519,4.519,0,0,0,0,9.038h48.074a4.515,4.515,0,0,0,4.516-4.522m0,20.933a4.514,4.514,0,0,0-4.516-4.516H92.955a4.516,4.516,0,1,0,0,9.032h48.074a4.514,4.514,0,0,0,4.516-4.516m0,20.927a4.514,4.514,0,0,0-4.516-4.516H92.955a4.516,4.516,0,1,0,0,9.032h48.074a4.514,4.514,0,0,0,4.516-4.516m0,20.927a4.514,4.514,0,0,0-4.516-4.516H92.955a4.519,4.519,0,0,0,0,9.038h48.074a4.515,4.515,0,0,0,4.516-4.522M203.1,140.2a4.515,4.515,0,0,0-4.516-4.522H150.514a4.519,4.519,0,0,0,0,9.038h48.074A4.514,4.514,0,0,0,203.1,140.2m0,20.927a4.514,4.514,0,0,0-4.516-4.516H150.514a4.516,4.516,0,0,0,0,9.032h48.074a4.514,4.514,0,0,0,4.516-4.516m0,20.927a4.514,4.514,0,0,0-4.516-4.516H150.514a4.516,4.516,0,0,0,0,9.032h48.074a4.514,4.514,0,0,0,4.516-4.516M166.7,35.545a5.235,5.235,0,1,0-5.235,5.235,5.234,5.234,0,0,0,5.235-5.235m15.693,0a5.232,5.232,0,1,0-5.229,5.235,5.233,5.233,0,0,0,5.229-5.235m15.7,0a5.232,5.232,0,1,0-5.229,5.235,5.233,5.233,0,0,0,5.229-5.235m15.7,0a5.232,5.232,0,1,0-5.235,5.235,5.234,5.234,0,0,0,5.235-5.235m15.7,0a5.232,5.232,0,1,0-5.235,5.235,5.234,5.234,0,0,0,5.235-5.235m15.7,0a5.235,5.235,0,1,0-5.235,5.235,5.234,5.234,0,0,0,5.235-5.235M166.7,77.405a5.235,5.235,0,1,0-5.235,5.229,5.234,5.234,0,0,0,5.235-5.229m15.693,0a5.232,5.232,0,1,0-5.229,5.229,5.233,5.233,0,0,0,5.229-5.229m15.7,0a5.232,5.232,0,1,0-5.229,5.229,5.233,5.233,0,0,0,5.229-5.229m15.7,0a5.232,5.232,0,1,0-5.235,5.229,5.234,5.234,0,0,0,5.235-5.229m15.7,0a5.232,5.232,0,1,0-5.235,5.229,5.234,5.234,0,0,0,5.235-5.229m15.7,0a5.235,5.235,0,1,0-5.235,5.229,5.234,5.234,0,0,0,5.235-5.229m-24.855,60.173a5.232,5.232,0,1,0-5.235,5.235,5.234,5.234,0,0,0,5.235-5.235m15.7,0a5.235,5.235,0,1,0-5.235,5.235,5.234,5.234,0,0,0,5.235-5.235m15.693,0a5.232,5.232,0,1,0-5.229,5.235,5.233,5.233,0,0,0,5.229-5.235m15.7,0a5.232,5.232,0,1,0-5.229,5.235,5.233,5.233,0,0,0,5.229-5.235m15.7,0a5.232,5.232,0,1,0-5.235,5.235,5.234,5.234,0,0,0,5.235-5.235m15.7,0a5.232,5.232,0,1,0-5.235,5.235,5.234,5.234,0,0,0,5.235-5.235m-78.486,43.168a5.232,5.232,0,1,0-5.235,5.235,5.234,5.234,0,0,0,5.235-5.235m15.7,0a5.235,5.235,0,1,0-5.235,5.235,5.234,5.234,0,0,0,5.235-5.235m15.693,0a5.232,5.232,0,1,0-5.229,5.235,5.233,5.233,0,0,0,5.229-5.235m15.7,0a5.232,5.232,0,1,0-5.229,5.235,5.233,5.233,0,0,0,5.229-5.235m15.7,0a5.232,5.232,0,1,0-5.235,5.235,5.234,5.234,0,0,0,5.235-5.235m15.7,0a5.232,5.232,0,1,0-5.235,5.235,5.234,5.234,0,0,0,5.235-5.235" transform="translate(231.489 141.217)" fill="#fff"/></g></g></g></g></svg>